<svg xmlns="http://www.w3.org/2000/svg" version="1.1" xmlns:xlink="http://www.w3.org/1999/xlink" xmlns:svgjs="http://svgjs.dev/svgjs" width="1000" height="625" viewBox="0 0 1000 625"><g transform="matrix(1,0,0,1,0,0)"><svg viewBox="0 0 512 320" data-background-color="#28353b" preserveAspectRatio="xMidYMid meet" height="625" width="1000" xmlns="http://www.w3.org/2000/svg" xmlns:xlink="http://www.w3.org/1999/xlink"><g id="tight-bounds" transform="matrix(1,0,0,1,0,0)"><svg viewBox="0 0 512 320" height="320" width="512"><g><svg></svg></g><g><svg viewBox="0 0 512 320" height="320" width="512"><g><path xmlns="http://www.w3.org/2000/svg" d="M96 160c0-88.366 71.634-160 160-160 88.366 0 160 71.634 160 160 0 88.366-71.634 160-160 160-88.366 0-160-71.634-160-160zM256 314.6c85.383 0 154.6-69.217 154.6-154.6 0-85.383-69.217-154.6-154.6-154.6-85.383 0-154.6 69.217-154.6 154.6 0 85.383 69.217 154.6 154.6 154.6z" fill="#ffffff" fill-rule="nonzero" stroke="none" stroke-width="1" stroke-linecap="butt" stroke-linejoin="miter" stroke-miterlimit="10" stroke-dasharray="" stroke-dashoffset="0" font-family="none" font-weight="none" font-size="none" text-anchor="none" style="mix-blend-mode: normal" data-fill-palette-color="tertiary"></path></g><g transform="matrix(1,0,0,1,128,91.77914558849379)"><svg viewBox="0 0 256 136.44170882301242" height="136.44170882301242" width="256"><g><svg viewBox="0 0 256 136.44170882301242" height="136.44170882301242" width="256"><g transform="matrix(1,0,0,1,0,82.12884801820658)"><svg viewBox="0 0 256 54.312860804805844" height="54.312860804805844" width="256"><g id="textblocktransform"><svg viewBox="0 0 256 54.312860804805844" height="54.312860804805844" width="256" id="textblock"><g><svg viewBox="0 0 256 29.941520467836252" height="29.941520467836252" width="256"><g transform="matrix(1,0,0,1,0,0)"><svg width="256" viewBox="1.5499999523162842 -33.400001525878906 290.67999267578125 34" height="29.941520467836252" data-palette-color="#ffffff"><g class="wordmark-text-0" data-fill-palette-color="primary" id="text-0"><path d="M10.6 0.6L10.6 0.6Q4.45 0.6 1.55-4.65L1.55-4.65 4.55-6.75Q5.65-4.8 7.05-3.93 8.45-3.05 10.2-3.05L10.2-3.05Q12.85-3.05 14.15-4.67 15.45-6.3 15.45-10.05L15.45-10.05 15.45-32.8 19.65-32.8 19.65-9.65Q19.65-7.55 19.13-5.68 18.6-3.8 17.53-2.4 16.45-1 14.73-0.2 13 0.6 10.6 0.6ZM34.15-18.35L34.15-18.35 32.6-13.35 42.45-13.35 40.9-18.35Q40-21.1 39.2-23.83 38.4-26.55 37.6-29.4L37.6-29.4 37.4-29.4Q36.65-26.55 35.85-23.83 35.05-21.1 34.15-18.35ZM28.4 0L24.15 0 35.25-32.8 39.95-32.8 51.05 0 46.6 0 43.5-10 31.55-10 28.4 0ZM59.85 0L55.7 0 55.7-32.8 65.95-32.8Q68.45-32.8 70.57-32.33 72.7-31.85 74.22-30.75 75.75-29.65 76.6-27.9 77.45-26.15 77.45-23.6L77.45-23.6Q77.45-19.75 75.45-17.45 73.45-15.15 70.05-14.3L70.05-14.3 78.4 0 73.7 0 65.8-13.85 59.85-13.85 59.85 0ZM59.85-29.45L59.85-17.25 65.35-17.25Q69.2-17.25 71.25-18.82 73.3-20.4 73.3-23.6L73.3-23.6Q73.3-26.85 71.25-28.15 69.2-29.45 65.35-29.45L65.35-29.45 59.85-29.45ZM94.99 0L90.14 0 79.64-32.8 84.09-32.8 89.34-15.1Q90.24-12.15 90.92-9.65 91.59-7.15 92.54-4.25L92.54-4.25 92.74-4.25Q93.64-7.15 94.34-9.65 95.04-12.15 95.89-15.1L95.89-15.1 101.14-32.8 105.39-32.8 94.99 0ZM114.04 0L109.89 0 109.89-32.8 114.04-32.8 114.04 0ZM132.14 0.6L132.14 0.6Q128.69 0.6 125.74-0.7 122.79-2 120.64-4.25L120.64-4.25 123.14-7.15Q124.89-5.3 127.26-4.17 129.64-3.05 132.19-3.05L132.19-3.05Q135.44-3.05 137.24-4.53 139.04-6 139.04-8.4L139.04-8.4Q139.04-9.65 138.61-10.53 138.19-11.4 137.46-12.03 136.74-12.65 135.74-13.15 134.74-13.65 133.59-14.2L133.59-14.2 128.89-16.25Q127.74-16.75 126.54-17.45 125.34-18.15 124.39-19.15 123.44-20.15 122.84-21.53 122.24-22.9 122.24-24.7L122.24-24.7Q122.24-26.55 123.01-28.15 123.79-29.75 125.16-30.93 126.54-32.1 128.41-32.75 130.29-33.4 132.54-33.4L132.54-33.4Q135.49-33.4 137.99-32.27 140.49-31.15 142.24-29.35L142.24-29.35 139.99-26.65Q138.49-28.1 136.66-28.93 134.84-29.75 132.54-29.75L132.54-29.75Q129.79-29.75 128.11-28.48 126.44-27.2 126.44-24.95L126.44-24.95Q126.44-23.75 126.91-22.93 127.39-22.1 128.19-21.48 128.99-20.85 129.94-20.38 130.89-19.9 131.89-19.5L131.89-19.5 136.54-17.5Q137.94-16.9 139.19-16.13 140.44-15.35 141.34-14.33 142.24-13.3 142.76-11.93 143.29-10.55 143.29-8.75L143.29-8.75Q143.29-6.8 142.51-5.1 141.74-3.4 140.29-2.13 138.84-0.85 136.79-0.13 134.74 0.6 132.14 0.6Z" fill="#ffffff" data-fill-palette-color="primary"></path><path d="M161.94 0L157.79 0 157.79-32.8 168.04-32.8Q170.54-32.8 172.66-32.33 174.79-31.85 176.31-30.75 177.84-29.65 178.69-27.9 179.54-26.15 179.54-23.6L179.54-23.6Q179.54-19.75 177.54-17.45 175.54-15.15 172.14-14.3L172.14-14.3 180.49 0 175.79 0 167.89-13.85 161.94-13.85 161.94 0ZM161.94-29.45L161.94-17.25 167.44-17.25Q171.29-17.25 173.34-18.82 175.39-20.4 175.39-23.6L175.39-23.6Q175.39-26.85 173.34-28.15 171.29-29.45 167.44-29.45L167.44-29.45 161.94-29.45ZM205.64 0L186.24 0 186.24-32.8 205.14-32.8 205.14-29.3 190.39-29.3 190.39-19 202.84-19 202.84-15.45 190.39-15.45 190.39-3.55 205.64-3.55 205.64 0ZM221.68 0.6L221.68 0.6Q218.23 0.6 215.28-0.7 212.33-2 210.18-4.25L210.18-4.25 212.68-7.15Q214.43-5.3 216.81-4.17 219.18-3.05 221.73-3.05L221.73-3.05Q224.98-3.05 226.78-4.53 228.58-6 228.58-8.4L228.58-8.4Q228.58-9.65 228.16-10.53 227.73-11.4 227.01-12.03 226.28-12.65 225.28-13.15 224.28-13.65 223.13-14.2L223.13-14.2 218.43-16.25Q217.28-16.75 216.08-17.45 214.88-18.15 213.93-19.15 212.98-20.15 212.38-21.53 211.78-22.9 211.78-24.7L211.78-24.7Q211.78-26.55 212.56-28.15 213.33-29.75 214.71-30.93 216.08-32.1 217.96-32.75 219.83-33.4 222.08-33.4L222.08-33.4Q225.03-33.4 227.53-32.27 230.03-31.15 231.78-29.35L231.78-29.35 229.53-26.65Q228.03-28.1 226.21-28.93 224.38-29.75 222.08-29.75L222.08-29.75Q219.33-29.75 217.66-28.48 215.98-27.2 215.98-24.95L215.98-24.95Q215.98-23.75 216.46-22.93 216.93-22.1 217.73-21.48 218.53-20.85 219.48-20.38 220.43-19.9 221.43-19.5L221.43-19.5 226.08-17.5Q227.48-16.9 228.73-16.13 229.98-15.35 230.88-14.33 231.78-13.3 232.31-11.93 232.83-10.55 232.83-8.75L232.83-8.75Q232.83-6.8 232.06-5.1 231.28-3.4 229.83-2.13 228.38-0.85 226.33-0.13 224.28 0.6 221.68 0.6ZM250.28 0L246.08 0 246.08-29.3 236.18-29.3 236.18-32.8 260.18-32.8 260.18-29.3 250.28-29.3 250.28 0ZM278.18 0.6L278.18 0.6Q275.08 0.6 272.5-0.6 269.93-1.8 268.08-4.03 266.23-6.25 265.2-9.43 264.18-12.6 264.18-16.55L264.18-16.55Q264.18-20.5 265.2-23.63 266.23-26.75 268.08-28.93 269.93-31.1 272.5-32.25 275.08-33.4 278.18-33.4L278.18-33.4Q281.28-33.4 283.85-32.23 286.43-31.05 288.3-28.88 290.18-26.7 291.2-23.58 292.23-20.45 292.23-16.55L292.23-16.55Q292.23-12.6 291.2-9.43 290.18-6.25 288.3-4.03 286.43-1.8 283.85-0.6 281.28 0.6 278.18 0.6ZM278.18-3.05L278.18-3.05Q280.38-3.05 282.15-4 283.93-4.95 285.2-6.73 286.48-8.5 287.18-10.98 287.88-13.45 287.88-16.55L287.88-16.55Q287.88-19.6 287.18-22.05 286.48-24.5 285.2-26.2 283.93-27.9 282.15-28.83 280.38-29.75 278.18-29.75L278.18-29.75Q275.98-29.75 274.2-28.83 272.43-27.9 271.15-26.2 269.88-24.5 269.18-22.05 268.48-19.6 268.48-16.55L268.48-16.55Q268.48-13.45 269.18-10.98 269.88-8.5 271.15-6.73 272.43-4.95 274.2-4 275.98-3.05 278.18-3.05Z" fill="#fe6152" data-fill-palette-color="accent"></path></g></svg></g></svg></g><g transform="matrix(1,0,0,1,48.896,37.00999485380116)"><svg viewBox="0 0 158.208 17.30286595100468" height="17.30286595100468" width="158.208"><g transform="matrix(1,0,0,1,0,0)"><svg width="158.208" viewBox="5.400000095367432 -41.54999923706055 544.8899536132812 59.599998474121094" height="17.30286595100468" data-palette-color="#ffffff"><path d="M25.7-21.3L25.7-21.3Q27.35-21.3 28.28-20.4 29.2-19.5 29.2-17.9L29.2-17.9Q29.2-17.5 29.13-17.07 29.05-16.65 28.95-16.35L28.95-16.35Q28.3-16.45 27.5-16.53 26.7-16.6 25.6-16.6L25.6-16.6Q23.45-16.6 21.25-16.23 19.05-15.85 17.05-15.6L17.05-15.6Q15.9-12.95 14.95-10.48 14-8 13.33-5.95 12.65-3.9 12.28-2.4 11.9-0.9 11.85-0.15L11.85-0.15Q15.9-1 20.03-1.6 24.15-2.2 28.7-2.5L28.7-2.5Q29.25-1.65 29.63-0.65 30 0.35 30 1.5L30 1.5Q30 1.8 30 2.15 30 2.5 29.9 2.85L29.9 2.85Q28.5 2.8 26.95 2.78 25.4 2.75 22.9 2.75L22.9 2.75Q21.25 2.75 19.78 2.83 18.3 2.9 16.8 3.05 15.3 3.2 13.63 3.45 11.95 3.7 9.85 4.05L9.85 4.05Q7.55 3.15 5.4-0.35L5.4-0.35Q6.25-2.15 7.78-5.83 9.3-9.5 11.65-15.65L11.65-15.65Q9.4-16.35 8.7-18.15L8.7-18.15Q8.95-18.4 10.15-18.78 11.35-19.15 13.1-19.55L13.1-19.55Q13.85-21.5 14.38-22.95 14.9-24.4 15.3-25.68 15.7-26.95 16.03-28.18 16.35-29.4 16.65-30.85L16.65-30.85Q14.9-30.95 13.9-31.83 12.9-32.7 12.9-34.1L12.9-34.1Q12.9-34.5 13.03-35.05 13.15-35.6 13.3-36L13.3-36Q14.3-35.85 15.23-35.8 16.15-35.75 17.65-35.75L17.65-35.75Q20.8-35.75 23.55-35.93 26.3-36.1 28.53-36.3 30.75-36.5 32.35-36.68 33.95-36.85 34.8-36.85L34.8-36.85Q35.95-36.85 36.85-35.65 37.75-34.45 38.2-32.25L38.2-32.25Q36.65-32.4 35.68-32.45 34.7-32.5 33.95-32.5L33.95-32.5Q31.2-32.5 28.93-32.23 26.65-31.95 24.55-31.65L24.55-31.65Q24.25-31.2 23.88-30.5 23.5-29.8 22.9-28.55 22.3-27.3 21.43-25.4 20.55-23.5 19.3-20.65L19.3-20.65Q21.2-20.95 22.88-21.13 24.55-21.3 25.7-21.3ZM50.85-0.3L50.85-0.3Q50.3 0.55 49.12 1.07 47.95 1.6 46.9 1.7L46.9 1.7Q46.05 0.7 45-1.03 43.95-2.75 43-5.05L43-5.05Q40.45-2.75 37.9-0.88 35.35 1 33.15 2.3L33.15 2.3Q32.6 2.2 32.25 1.7 31.9 1.2 31.85 0.4L31.85 0.4Q32.85-0.15 34.22-1.05 35.6-1.95 37.02-3.03 38.45-4.1 39.77-5.28 41.1-6.45 42.05-7.55L42.05-7.55Q41.2-9.55 40.47-11.68 39.75-13.8 39.22-15.78 38.7-17.75 38.4-19.38 38.1-21 38.1-22L38.1-22Q38.1-22.7 38.27-22.93 38.45-23.15 39.1-23.15L39.1-23.15Q39.6-23.15 40.32-23.05 41.05-22.95 41.8-22.8 42.55-22.65 43.3-22.48 44.05-22.3 44.6-22.1L44.6-22.1Q44.5-21.55 44.5-21.15 44.5-20.75 44.5-20L44.5-20Q44.5-18.05 44.82-16.03 45.15-14 45.9-11.65L45.9-11.65Q47.95-14 49.7-16.88 51.45-19.75 53.25-23.75L53.25-23.75Q54.5-23.5 55.4-23.03 56.3-22.55 56.55-22L56.55-22Q56-19.7 53.45-16.2 50.9-12.7 46.95-8.75L46.95-8.75Q47.65-6.85 48.65-4.73 49.65-2.6 50.85-0.3ZM62.4-19.15L59.55-19.15Q59.3-19.45 59.1-20.43 58.9-21.4 58.9-22.1L58.9-22.1Q60.2-22 61.4-21.93 62.6-21.85 63.6-21.8L63.6-21.8Q64.34-23.3 65.22-24.78 66.09-26.25 66.92-27.48 67.75-28.7 68.47-29.55 69.2-30.4 69.59-30.65L69.59-30.65Q70.09-30.65 70.87-30.48 71.65-30.3 72.45-30.03 73.25-29.75 73.9-29.45 74.55-29.15 74.8-28.85L74.8-28.85Q73.3-26.95 72.22-25.33 71.15-23.7 69.9-21.6L69.9-21.6Q70.9-21.6 71.92-21.65 72.95-21.7 74-21.8L74-21.8Q74.25-21.55 74.4-21.18 74.55-20.8 74.55-20.4L74.55-20.4Q72.09-19.5 68.59-19.4L68.59-19.4Q67.34-17 66.37-14.63 65.4-12.25 64.72-10.05 64.05-7.85 63.67-5.9 63.3-3.95 63.3-2.4L63.3-2.4Q63.3-0.2 64.95 0.05L64.95 0.05Q66.45-0.15 67.8-0.7 69.15-1.25 70.2-2.1L70.2-2.1Q70.5-1.65 70.55-1.35L70.55-1.35Q70.25-0.9 69.52-0.3 68.8 0.3 67.95 0.88 67.09 1.45 66.3 1.85 65.5 2.25 65.09 2.3L65.09 2.3Q63.85 2.25 62.6 1.75 61.35 1.25 60.32 0.5 59.3-0.25 58.65-1.18 58-2.1 58-3L58-3Q58-4.2 58.32-6.03 58.65-7.85 59.25-10 59.85-12.15 60.65-14.5 61.45-16.85 62.4-19.15L62.4-19.15ZM72.99-1L72.99-1Q73.24-2.45 73.87-4.83 74.49-7.2 75.34-9.88 76.19-12.55 77.14-15.25 78.09-17.95 78.99-20.1L78.99-20.1Q79.64-21.65 80.14-22.53 80.64-23.4 81.24-24L81.24-24Q81.94-23.9 82.69-23.65 83.44-23.4 84.14-23.05 84.84-22.7 85.39-22.33 85.94-21.95 86.24-21.6L86.24-21.6Q84.89-20 83.87-17.95 82.84-15.9 81.79-12.7L81.79-12.7Q84.49-15.1 86.57-17.3 88.64-19.5 90.44-22.2L90.44-22.2Q90.74-22.45 91.49-22.45L91.49-22.45Q92.19-22.45 92.84-22.23 93.49-22 93.74-21.6L93.74-21.6Q92.84-19.2 92.84-16.85L92.84-16.85Q92.84-14.65 93.49-13.55L93.49-13.55Q93.44-13.25 92.82-12.4 92.19-11.55 91.44-10.8L91.44-10.8Q90.09-11.5 89.04-12.73 87.99-13.95 87.49-15.4L87.49-15.4Q85.14-13.75 83.49-12.18 81.84-10.6 80.67-8.68 79.49-6.75 78.67-4.25 77.84-1.75 77.09 1.7L77.09 1.7Q76.64 1.65 76.02 1.38 75.39 1.1 74.77 0.7 74.14 0.3 73.64-0.15 73.14-0.6 72.99-1ZM111.59-20.2L111.59-20.2Q112.09-20.2 112.77-20.03 113.44-19.85 113.99-19.58 114.54-19.3 114.92-19 115.29-18.7 115.29-18.45L115.29-18.45Q114.29-16.35 113.44-14.23 112.59-12.1 111.99-10.15 111.39-8.2 111.07-6.5 110.74-4.8 110.74-3.55L110.74-3.55Q110.74-2.15 111.04-1.23 111.34-0.3 112.04 0.1L112.04 0.1Q111.44 0.5 110.49 0.75 109.54 1 108.79 1L108.79 1Q106.09 1 106.09-2.7L106.09-2.7Q106.09-5.55 107.99-10.5L107.99-10.5Q106.99-8.2 105.69-6.18 104.39-4.15 103.04-2.6 101.69-1.05 100.32-0.08 98.94 0.9 97.79 1.1L97.79 1.1Q95.94 1 94.79-0.68 93.64-2.35 93.64-4.95L93.64-4.95Q93.64-7.75 94.84-10.85 96.04-13.95 97.92-16.6 99.79-19.25 101.99-21.03 104.19-22.8 106.24-22.9L106.24-22.9Q106.74-22.75 107.37-22.3 107.99-21.85 108.57-21.25 109.14-20.65 109.54-20.03 109.94-19.4 109.99-18.95L109.99-18.95Q107.99-18.65 105.87-17 103.74-15.35 102.02-13.03 100.29-10.7 99.19-8.05 98.09-5.4 98.09-3.1L98.09-3.1Q98.09-2.15 98.79-1.9L98.79-1.9Q100.24-2.2 102.14-4.38 104.04-6.55 106.74-11.1L106.74-11.1Q107.24-12 107.87-13.1 108.49-14.2 109.14-15.4 109.79-16.6 110.42-17.82 111.04-19.05 111.59-20.2ZM152.99-36.4L152.99-36.4Q153.94-36 154.94-35.38 155.94-34.75 156.79-34.1 157.64-33.45 158.21-32.83 158.79-32.2 158.84-31.8L158.84-31.8Q157.99-32 157.14-32.08 156.29-32.15 155.59-32.15L155.59-32.15Q153.34-32.15 151.11-31.05 148.89-29.95 146.89-28.05 144.89-26.15 143.19-23.6 141.49-21.05 140.26-18.15 139.04-15.25 138.34-12.15 137.64-9.05 137.64-6.05L137.64-6.05Q137.64-2.15 138.94-0.25 140.24 1.65 142.74 1.65L142.74 1.65Q143.94 1.65 145.34 1.18 146.74 0.7 148.19-0.15 149.64-1 151.04-2.2 152.44-3.4 153.64-4.85L153.64-4.85Q155.39-6.95 156.79-9.63 158.19-12.3 159.16-15.3 160.14-18.3 160.66-21.48 161.19-24.65 161.19-27.7L161.19-27.7Q161.19-28.9 161.14-29.73 161.09-30.55 161.01-31.13 160.94-31.7 160.89-32.05 160.84-32.4 160.79-32.65L160.79-32.65Q161.39-32.35 162.11-31.93 162.84-31.5 163.46-30.68 164.09-29.85 164.51-28.5 164.94-27.15 164.94-25L164.94-25Q164.94-21.5 164.11-18.13 163.29-14.75 161.81-11.7 160.34-8.65 158.34-6 156.34-3.35 154.04-1.35L154.04-1.35Q151.04 1.3 147.64 2.75 144.24 4.2 141.09 4.2L141.09 4.2Q136.49 4.2 134.06 1.28 131.64-1.65 131.64-7.35L131.64-7.35Q131.64-10.4 132.31-13.8 132.99-17.2 134.21-20.5 135.44-23.8 137.14-26.78 138.84-29.75 140.86-32.02 142.89-34.3 145.21-35.65 147.54-37 149.99-37L149.99-37Q150.79-37 151.49-36.88 152.19-36.75 152.99-36.4ZM164.13-1L164.13-1Q164.38-2.45 165.01-4.83 165.63-7.2 166.48-9.88 167.33-12.55 168.28-15.25 169.23-17.95 170.13-20.1L170.13-20.1Q170.78-21.65 171.28-22.53 171.78-23.4 172.38-24L172.38-24Q173.08-23.9 173.83-23.65 174.58-23.4 175.28-23.05 175.98-22.7 176.53-22.33 177.08-21.95 177.38-21.6L177.38-21.6Q176.03-20 175.01-17.95 173.98-15.9 172.93-12.7L172.93-12.7Q175.63-15.1 177.71-17.3 179.78-19.5 181.58-22.2L181.58-22.2Q181.88-22.45 182.63-22.45L182.63-22.45Q183.33-22.45 183.98-22.23 184.63-22 184.88-21.6L184.88-21.6Q183.98-19.2 183.98-16.85L183.98-16.85Q183.98-14.65 184.63-13.55L184.63-13.55Q184.58-13.25 183.96-12.4 183.33-11.55 182.58-10.8L182.58-10.8Q181.23-11.5 180.18-12.73 179.13-13.95 178.63-15.4L178.63-15.4Q176.28-13.75 174.63-12.18 172.98-10.6 171.81-8.68 170.63-6.75 169.81-4.25 168.98-1.75 168.23 1.7L168.23 1.7Q167.78 1.65 167.16 1.38 166.53 1.1 165.91 0.7 165.28 0.3 164.78-0.15 164.28-0.6 164.13-1ZM196.38-23.35L196.38-23.35Q197.38-23.35 198.68-22.75 199.98-22.15 200.98-21.2L200.98-21.2Q200.73-23.2 200.36-24.98 199.98-26.75 199.26-28.65 198.53-30.55 197.33-32.8 196.13-35.05 194.33-37.95L194.33-37.95Q194.48-38.4 195.01-39 195.53-39.6 196.21-40.13 196.88-40.65 197.61-41.05 198.33-41.45 198.98-41.55L198.98-41.55Q200.38-40 201.63-37.68 202.88-35.35 203.83-32.68 204.78-30 205.31-27.15 205.83-24.3 205.83-21.7L205.83-21.7Q205.83-19.1 205.26-16.35 204.68-13.6 203.66-10.98 202.63-8.35 201.28-6 199.93-3.65 198.36-1.8 196.78 0.05 195.08 1.23 193.38 2.4 191.68 2.7L191.68 2.7Q188.23 2.3 186.41 0.48 184.58-1.35 184.58-4.55L184.58-4.55Q184.58-6.25 185.11-8.25 185.63-10.25 186.51-12.23 187.38-14.2 188.56-16.07 189.73-17.95 191.06-19.45 192.38-20.95 193.73-22 195.08-23.05 196.38-23.35ZM191.28 0.7L191.28 0.7Q193.03 0.1 194.78-1.95 196.53-4 197.93-6.78 199.33-9.55 200.21-12.73 201.08-15.9 201.08-18.85L201.08-18.85Q201.08-19.7 201.08-19.9 201.08-20.1 201.03-20.3L201.03-20.3Q199.83-19.8 198.48-18.6 197.13-17.4 195.78-15.83 194.43-14.25 193.23-12.4 192.03-10.55 191.08-8.7 190.13-6.85 189.58-5.15 189.03-3.45 189.03-2.15L189.03-2.15Q189.03 0.35 191.28 0.7ZM207.18-3.35L207.18-3.35Q207.18-3.8 207.25-4.48 207.33-5.15 207.53-6.28 207.73-7.4 208.05-9 208.38-10.6 208.88-12.85L208.88-12.85Q208.98-13.35 209.33-14.45 209.68-15.55 210.25-16.78 210.83-18 211.65-19.15 212.48-20.3 213.63-20.85L213.63-20.85Q214.48-20.65 215.88-19.83 217.28-19 218.28-17.55L218.28-17.55Q217.13-16.25 216.35-14.95 215.58-13.65 214.95-12.25 214.33-10.85 213.8-9.35 213.28-7.85 212.63-6.2L212.63-6.2Q212.08-4.8 211.63-3.33 211.18-1.85 211.13-0.75L211.13-0.75Q211.13 0.15 211.1 0.53 211.08 0.9 210.83 0.9L210.83 0.9Q210.63 0.9 210.03 0.65 209.43 0.4 208.8-0.13 208.18-0.65 207.68-1.45 207.18-2.25 207.18-3.35ZM216.73-25.05L216.73-25.05Q216.73-25.35 216.88-25.95L216.88-25.95Q216.63-26.2 216.45-26.7 216.28-27.2 216.28-27.6L216.28-27.6Q216.28-28.05 216.4-28.83 216.53-29.6 216.73-30.5 216.93-31.4 217.23-32.38 217.53-33.35 217.83-34.15L217.83-34.15Q218.43-34.15 219.3-33.83 220.18-33.5 221.08-32.98 221.98-32.45 222.73-31.83 223.48-31.2 223.88-30.65L223.88-30.65Q223.33-30.1 222.43-29.13 221.53-28.15 220.68-27.08 219.83-26 219.13-25.05 218.43-24.1 218.23-23.7L218.23-23.7Q217.63-23.8 217.18-24.23 216.73-24.65 216.73-25.05ZM227.03-24.25L227.03-24.25Q228.33-23.85 229.48-22.48 230.63-21.1 231.18-19.45L231.18-19.45Q230.63-18.1 229.48-16.2 228.33-14.3 227.18-12.33 226.03-10.35 225.1-8.58 224.18-6.8 224.03-5.65L224.03-5.65Q224.83-6.5 225.8-7.63 226.78-8.75 227.7-9.88 228.63-11 229.43-11.93 230.23-12.85 230.68-13.3L230.68-13.3Q231.63-14.3 232.93-15.63 234.23-16.95 235.65-18.13 237.08-19.3 238.53-20.13 239.98-20.95 241.18-20.95L241.18-20.95Q242.48-20.95 243.35-20.08 244.23-19.2 244.73-18.25L244.73-18.25Q244.73-18.15 244.35-17.98 243.98-17.8 243.28-17L243.28-17Q242.58-16.1 241.7-14.53 240.83-12.95 240-11.13 239.18-9.3 238.63-7.4 238.08-5.5 238.08-3.95L238.08-3.95Q238.08-2.7 238.4-2.35 238.73-2 239.33-2L239.33-2Q239.88-2 240.48-2.25 241.08-2.5 241.43-2.5L241.43-2.5Q241.63-2.4 241.75-2.08 241.88-1.75 241.88-1.5L241.88-1.5Q241.48-1.15 240.93-0.8 240.38-0.45 239.78-0.15 239.18 0.15 238.6 0.35 238.03 0.55 237.58 0.55L237.58 0.55Q236.13 0.55 235.2 0.13 234.28-0.3 233.75-1 233.23-1.7 233.03-2.68 232.83-3.65 232.83-4.75L232.83-4.75Q232.83-5.35 232.93-6.1 233.03-6.85 233.33-7.88 233.63-8.9 234.18-10.33 234.73-11.75 235.58-13.75L235.58-13.75Q235.48-13.75 234.23-13.05 232.98-12.35 231.53-10.9L231.53-10.9Q229.18-8.65 227.3-6.45 225.43-4.25 223.48-1.55L223.48-1.55Q222.38 0 221.55 1.07 220.73 2.15 220.13 2.5L220.13 2.5Q219.08 1.9 218.58 0.83 218.08-0.25 217.83-1.4L217.83-1.4Q217.83-2.35 218.1-3.8 218.38-5.25 218.85-7.03 219.33-8.8 220.03-10.75 220.73-12.7 221.58-14.65L221.58-14.65Q223.48-19.05 225.05-21.55 226.63-24.05 227.03-24.25ZM263.17-20.2L263.17-20.2Q263.67-20.2 264.35-20.03 265.02-19.85 265.57-19.58 266.12-19.3 266.5-19 266.87-18.7 266.87-18.45L266.87-18.45Q265.87-16.35 265.02-14.23 264.17-12.1 263.57-10.15 262.97-8.2 262.65-6.5 262.32-4.8 262.32-3.55L262.32-3.55Q262.32-2.15 262.62-1.23 262.92-0.3 263.62 0.1L263.62 0.1Q263.02 0.5 262.07 0.75 261.12 1 260.37 1L260.37 1Q257.67 1 257.67-2.7L257.67-2.7Q257.67-5.55 259.57-10.5L259.57-10.5Q258.57-8.2 257.27-6.18 255.97-4.15 254.62-2.6 253.27-1.05 251.9-0.08 250.52 0.9 249.37 1.1L249.37 1.1Q247.52 1 246.37-0.68 245.22-2.35 245.22-4.95L245.22-4.95Q245.22-7.75 246.42-10.85 247.62-13.95 249.5-16.6 251.37-19.25 253.57-21.03 255.77-22.8 257.82-22.9L257.82-22.9Q258.32-22.75 258.95-22.3 259.57-21.85 260.15-21.25 260.72-20.65 261.12-20.03 261.52-19.4 261.57-18.95L261.57-18.95Q259.57-18.65 257.45-17 255.32-15.35 253.6-13.03 251.87-10.7 250.77-8.05 249.67-5.4 249.67-3.1L249.67-3.1Q249.67-2.15 250.37-1.9L250.37-1.9Q251.82-2.2 253.72-4.38 255.62-6.55 258.32-11.1L258.32-11.1Q258.82-12 259.45-13.1 260.07-14.2 260.72-15.4 261.37-16.6 262-17.82 262.62-19.05 263.17-20.2ZM268.22-1L268.22-1Q268.47-2.45 269.1-4.83 269.72-7.2 270.57-9.88 271.42-12.55 272.37-15.25 273.32-17.95 274.22-20.1L274.22-20.1Q274.87-21.65 275.37-22.53 275.87-23.4 276.47-24L276.47-24Q277.17-23.9 277.92-23.65 278.67-23.4 279.37-23.05 280.07-22.7 280.62-22.33 281.17-21.95 281.47-21.6L281.47-21.6Q280.12-20 279.1-17.95 278.07-15.9 277.02-12.7L277.02-12.7Q279.72-15.1 281.8-17.3 283.87-19.5 285.67-22.2L285.67-22.2Q285.97-22.45 286.72-22.45L286.72-22.45Q287.42-22.45 288.07-22.23 288.72-22 288.97-21.6L288.97-21.6Q288.07-19.2 288.07-16.85L288.07-16.85Q288.07-14.65 288.72-13.55L288.72-13.55Q288.67-13.25 288.05-12.4 287.42-11.55 286.67-10.8L286.67-10.8Q285.32-11.5 284.27-12.73 283.22-13.95 282.72-15.4L282.72-15.4Q280.37-13.75 278.72-12.18 277.07-10.6 275.9-8.68 274.72-6.75 273.9-4.25 273.07-1.75 272.32 1.7L272.32 1.7Q271.87 1.65 271.25 1.38 270.62 1.1 270 0.7 269.37 0.3 268.87-0.15 268.37-0.6 268.22-1ZM308.37-7.75L308.37-7.75Q307.22-4.1 306.07-1.1 304.92 1.9 303.62 4.42 302.32 6.95 300.82 9.08 299.32 11.2 297.52 13.1L297.52 13.1Q295.22 15.5 292.77 16.78 290.32 18.05 287.87 18.05L287.87 18.05Q286.62 18.05 285.39 17.78 284.17 17.5 283.09 17.03 282.02 16.55 281.19 15.93 280.37 15.3 280.02 14.6L280.02 14.6Q280.02 14 280.72 13.55L280.72 13.55Q281.32 14.1 281.72 14.4 282.12 14.7 282.49 14.9 282.87 15.1 283.29 15.15 283.72 15.2 284.27 15.2L284.27 15.2Q287.12 15.2 289.84 13.53 292.57 11.85 294.99 8.78 297.42 5.7 299.42 1.33 301.42-3.05 302.82-8.45L302.82-8.45Q302.17-7.45 301.22-6 300.27-4.55 299.12-3.13 297.97-1.7 296.74-0.55 295.52 0.6 294.37 1L294.37 1Q293.57 0.95 292.69 0.68 291.82 0.4 291.04-0.1 290.27-0.6 289.67-1.3 289.07-2 288.87-2.9L288.87-2.9Q288.87-4.35 288.97-5.23 289.07-6.1 289.32-7.15L289.32-7.15Q289.77-9.05 290.64-11.45 291.52-13.85 292.69-16.18 293.87-18.5 295.29-20.53 296.72-22.55 298.27-23.7L298.27-23.7Q298.67-23.7 299.27-23.63 299.87-23.55 300.52-23.35 301.17-23.15 301.77-22.88 302.37-22.6 302.82-22.15L302.82-22.15Q302.27-21.65 300.42-18.8 298.57-15.95 296.32-10.6L296.32-10.6Q296.07-10.05 295.72-9 295.37-7.95 295.04-6.8 294.72-5.65 294.47-4.55 294.22-3.45 294.22-2.8L294.22-2.8Q294.22-2.4 294.34-2.2 294.47-2 294.57-1.9L294.57-1.9Q295.47-2.05 296.97-3.38 298.47-4.7 300.37-7.5L300.37-7.5Q301.57-9.3 302.57-11.08 303.57-12.85 304.54-14.65 305.52-16.45 306.57-18.35 307.62-20.25 308.82-22.25L308.82-22.25Q309.47-22.25 310.22-22.1 310.97-21.95 311.67-21.73 312.37-21.5 312.89-21.23 313.42-20.95 313.67-20.65L313.67-20.65Q312.12-17.35 310.77-14.2 309.42-11.05 308.37-7.75ZM360.11-27.55L360.11-27.55Q360.11-25.15 359.04-23.03 357.96-20.9 356.06-19.23 354.16-17.55 351.61-16.4 349.06-15.25 346.06-14.85L346.06-14.85Q346.81-12.6 347.89-10.23 348.96-7.85 350.21-5.65 351.46-3.45 352.81-1.6 354.16 0.25 355.46 1.45L355.46 1.45Q355.21 1.95 354.74 2.45 354.26 2.95 353.64 3.38 353.01 3.8 352.34 4.08 351.66 4.35 351.06 4.35L351.06 4.35Q349.96 4.35 348.96 3.3 347.96 2.25 346.94-0.03 345.91-2.3 344.79-5.93 343.66-9.55 342.31-14.65L342.31-14.65Q341.76-14.65 341.21-14.65 340.66-14.65 340.36-14.75L340.36-14.75Q340.01-14.95 339.61-15.45L339.61-15.45Q338.26-12.55 337.21-10 336.16-7.45 335.34-5.08 334.51-2.7 333.89-0.48 333.26 1.75 332.81 4.05L332.81 4.05Q331.11 3.65 329.86 2.6 328.61 1.55 327.51-0.35L327.51-0.35Q327.71-0.8 327.94-1.23 328.16-1.65 328.51-2.43 328.86-3.2 329.39-4.4 329.91-5.6 330.79-7.6 331.66-9.6 332.89-12.5 334.11-15.4 335.86-19.55L335.86-19.55Q336.66-21.4 337.24-22.8 337.81-24.2 338.26-25.48 338.71-26.75 339.09-28.03 339.46-29.3 339.86-30.95L339.86-30.95Q337.56-30.15 335.59-29.18 333.61-28.2 332.31-27.1L332.31-27.1Q331.86-27.4 331.39-28 330.91-28.6 330.51-29.33 330.11-30.05 329.81-30.8 329.51-31.55 329.46-32.15L329.46-32.15Q330.96-33.15 333.14-34 335.31-34.85 337.76-35.48 340.21-36.1 342.76-36.45 345.31-36.8 347.51-36.8L347.51-36.8Q353.51-36.8 356.81-34.33 360.11-31.85 360.11-27.55ZM347.31-32.7L347.91-31.75Q347.56-31.3 346.81-29.95 346.06-28.6 345.09-26.73 344.11-24.85 343.04-22.65 341.96-20.45 340.96-18.3L340.96-18.3Q344.71-18.3 347.86-19 351.01-19.7 353.31-20.98 355.61-22.25 356.89-23.98 358.16-25.7 358.16-27.8L358.16-27.8Q358.16-30.3 356.36-31.63 354.56-32.95 350.81-32.95L350.81-32.95Q349.96-32.95 349.11-32.88 348.26-32.8 347.31-32.7L347.31-32.7ZM376.26-20.7L376.26-20.7Q376.06-17.6 375.16-15.38 374.26-13.15 372.58-11.48 370.91-9.8 368.51-8.45 366.11-7.1 362.91-5.85L362.91-5.85Q362.91-5.55 362.88-5.23 362.86-4.9 362.86-4.55L362.86-4.55Q362.86-3.9 362.96-3.2 363.06-2.5 363.31-1.9 363.56-1.3 364.01-0.93 364.46-0.55 365.16-0.55L365.16-0.55Q366.51-0.55 367.81-1.15 369.11-1.75 370.28-2.63 371.46-3.5 372.49-4.53 373.51-5.55 374.31-6.4L374.31-6.4Q374.81-5.95 375.16-5.55L375.16-5.55Q372.91-2.55 370.24-0.58 367.56 1.4 365.16 1.95L365.16 1.95Q361.71 1.55 359.78-0.58 357.86-2.7 357.86-5.7L357.86-5.7Q357.86-7.75 358.44-9.88 359.01-12 360.03-13.98 361.06-15.95 362.44-17.7 363.81-19.45 365.38-20.75 366.96-22.05 368.63-22.8 370.31-23.55 371.96-23.55L371.96-23.55Q374.26-23.25 376.26-20.7ZM372.81-19.05L372.81-19.05Q371.46-18.85 370.01-17.95 368.56-17.05 367.28-15.55 366.01-14.05 364.96-12.05 363.91-10.05 363.31-7.75L363.31-7.75Q367.31-9.75 369.96-12.68 372.61-15.6 372.81-19.05ZM395.81-19.9L395.81-19.9Q395.76-18.95 395.48-17.93 395.21-16.9 394.81-16.07 394.41-15.25 393.96-14.7 393.51-14.15 393.11-14.15L393.11-14.15Q392.56-14.2 392.46-14.9L392.46-14.9Q392.46-15.05 392.58-15.38 392.71-15.7 392.86-16.1 393.01-16.5 393.13-16.9 393.26-17.3 393.26-17.6L393.26-17.6Q393.26-18.3 392.93-18.78 392.61-19.25 392.06-19.25L392.06-19.25Q390.06-19.25 389.01-16.75 387.96-14.25 387.96-9.4L387.96-9.4Q387.96-8.9 388.01-8.8L388.01-8.8Q389.06-8.85 389.88-8.88 390.71-8.9 391.51-8.9L391.51-8.9Q391.56-8.8 391.56-8.5L391.56-8.5Q391.56-8.05 391.36-7.85L391.36-7.85Q390.21-7.6 389.53-7.43 388.86-7.25 388.51-7.1 388.16-6.95 388.08-6.78 388.01-6.6 388.01-6.3L388.01-6.3Q388.01-5.9 388.03-5.5 388.06-5.1 388.06-4.5L388.06-4.5Q388.06-0.3 385.78 2.25 383.51 4.8 379.46 5.2L379.46 5.2Q378.76 5.15 378.01 4.8 377.26 4.45 376.58 3.9 375.91 3.35 375.41 2.68 374.91 2 374.71 1.3L374.71 1.3Q374.71-0.6 375.51-2.33 376.31-4.05 377.68-5.38 379.06-6.7 380.93-7.53 382.81-8.35 385.01-8.5L385.01-8.5Q385.01-9.75 384.76-10.95 384.51-12.15 384.23-13.28 383.96-14.4 383.71-15.48 383.46-16.55 383.46-17.6L383.46-17.6Q383.46-18.95 384.01-20.28 384.56-21.6 385.46-22.73 386.36-23.85 387.56-24.65 388.76-25.45 390.06-25.75L390.06-25.75Q390.61-25.6 391.53-24.88 392.46-24.15 393.36-23.25 394.26-22.35 394.96-21.43 395.66-20.5 395.81-19.9ZM379.31 2.9L379.31 2.9Q380.51 2.4 381.58 1.45 382.66 0.5 383.46-0.7 384.26-1.9 384.73-3.25 385.21-4.6 385.21-5.9L385.21-5.9Q384.21-5.75 383.01-4.98 381.81-4.2 380.76-3.13 379.71-2.05 379.01-0.9 378.31 0.25 378.31 1.1L378.31 1.1Q378.31 2.2 379.31 2.9ZM401.65-19.15L398.81-19.15Q398.56-19.45 398.36-20.43 398.15-21.4 398.15-22.1L398.15-22.1Q399.45-22 400.65-21.93 401.86-21.85 402.86-21.8L402.86-21.8Q403.61-23.3 404.48-24.78 405.36-26.25 406.18-27.48 407-28.7 407.73-29.55 408.45-30.4 408.86-30.65L408.86-30.65Q409.36-30.65 410.13-30.48 410.9-30.3 411.7-30.03 412.5-29.75 413.15-29.45 413.81-29.15 414.06-28.85L414.06-28.85Q412.56-26.95 411.48-25.33 410.4-23.7 409.15-21.6L409.15-21.6Q410.15-21.6 411.18-21.65 412.2-21.7 413.25-21.8L413.25-21.8Q413.5-21.55 413.65-21.18 413.81-20.8 413.81-20.4L413.81-20.4Q411.36-19.5 407.86-19.4L407.86-19.4Q406.61-17 405.63-14.63 404.65-12.25 403.98-10.05 403.31-7.85 402.93-5.9 402.56-3.95 402.56-2.4L402.56-2.4Q402.56-0.2 404.2 0.05L404.2 0.05Q405.7-0.15 407.06-0.7 408.4-1.25 409.45-2.1L409.45-2.1Q409.75-1.65 409.81-1.35L409.81-1.35Q409.5-0.9 408.78-0.3 408.06 0.3 407.2 0.88 406.36 1.45 405.56 1.85 404.75 2.25 404.36 2.3L404.36 2.3Q403.11 2.25 401.86 1.75 400.61 1.25 399.58 0.5 398.56-0.25 397.9-1.18 397.25-2.1 397.25-3L397.25-3Q397.25-4.2 397.58-6.03 397.9-7.85 398.5-10 399.11-12.15 399.9-14.5 400.7-16.85 401.65-19.15L401.65-19.15ZM430.7-20.2L430.7-20.2Q431.2-20.2 431.88-20.03 432.55-19.85 433.1-19.58 433.65-19.3 434.03-19 434.4-18.7 434.4-18.45L434.4-18.45Q433.4-16.35 432.55-14.23 431.7-12.1 431.1-10.15 430.5-8.2 430.18-6.5 429.85-4.8 429.85-3.55L429.85-3.55Q429.85-2.15 430.15-1.23 430.45-0.3 431.15 0.1L431.15 0.1Q430.55 0.5 429.6 0.75 428.65 1 427.9 1L427.9 1Q425.2 1 425.2-2.7L425.2-2.7Q425.2-5.55 427.1-10.5L427.1-10.5Q426.1-8.2 424.8-6.18 423.5-4.15 422.15-2.6 420.8-1.05 419.43-0.08 418.05 0.9 416.9 1.1L416.9 1.1Q415.05 1 413.9-0.68 412.75-2.35 412.75-4.95L412.75-4.95Q412.75-7.75 413.95-10.85 415.15-13.95 417.03-16.6 418.9-19.25 421.1-21.03 423.3-22.8 425.35-22.9L425.35-22.9Q425.85-22.75 426.48-22.3 427.1-21.85 427.68-21.25 428.25-20.65 428.65-20.03 429.05-19.4 429.1-18.95L429.1-18.95Q427.1-18.65 424.98-17 422.85-15.35 421.13-13.03 419.4-10.7 418.3-8.05 417.2-5.4 417.2-3.1L417.2-3.1Q417.2-2.15 417.9-1.9L417.9-1.9Q419.35-2.2 421.25-4.38 423.15-6.55 425.85-11.1L425.85-11.1Q426.35-12 426.98-13.1 427.6-14.2 428.25-15.4 428.9-16.6 429.53-17.82 430.15-19.05 430.7-20.2ZM450.35-1.1L450.35-1.1Q449.4-1.9 449.08-3.1 448.75-4.3 448.75-5.15L448.75-5.15Q448.75-6.2 449-6.95L449-6.95Q448.8-6.95 448.1-6.15 447.4-5.35 446.58-4.25 445.75-3.15 444.95-2.1 444.15-1.05 443.75-0.55L443.75-0.55Q443.1 0.15 442.53 0.55 441.95 0.95 441.6 1L441.6 1Q440.8 0.95 439.93 0.68 439.05 0.4 438.28-0.1 437.5-0.6 436.93-1.3 436.35-2 436.15-2.9L436.15-2.9Q436.15-4.3 436.23-5.2 436.3-6.1 436.55-7.15L436.55-7.15Q437-9.05 437.88-11.45 438.75-13.85 439.9-16.18 441.05-18.5 442.48-20.53 443.9-22.55 445.5-23.7L445.5-23.7Q445.95-23.7 446.55-23.63 447.15-23.55 447.78-23.35 448.4-23.15 448.98-22.88 449.55-22.6 449.95-22.15L449.95-22.15Q449.5-21.65 447.68-18.8 445.85-15.95 443.6-10.6L443.6-10.6Q443.35-10.05 443-9 442.65-7.95 442.3-6.8 441.95-5.65 441.73-4.55 441.5-3.45 441.5-2.8L441.5-2.8Q441.5-2.4 441.63-2.2 441.75-2 441.85-1.9L441.85-1.9Q442.6-2.2 443.75-3.55 444.9-4.9 446.95-7.7L446.95-7.7Q447.45-8.4 448.13-9.3 448.8-10.2 449.5-11.23 450.2-12.25 450.83-13.35 451.45-14.45 451.85-15.55L451.85-15.55Q452.05-16.15 452.38-16.98 452.7-17.8 453.18-18.7 453.65-19.6 454.28-20.53 454.9-21.45 455.75-22.25L455.75-22.25Q456.4-22.25 457.15-22.1 457.9-21.95 458.58-21.73 459.25-21.5 459.75-21.23 460.25-20.95 460.5-20.65L460.5-20.65Q459.6-18.45 458.5-16.3 457.4-14.15 456.45-12.08 455.5-10 454.85-7.95 454.2-5.9 454.2-3.95L454.2-3.95Q454.2-2.9 454.38-2.13 454.55-1.35 454.75-0.83 454.95-0.3 455.13 0.05 455.3 0.4 455.3 0.65L455.3 0.65Q455.3 0.7 455.2 0.8L455.2 0.8Q455.15 0.85 455.1 0.85L455.1 0.85Q454.75 0.85 454.2 0.7 453.65 0.55 452.98 0.28 452.3 0 451.63-0.35 450.95-0.7 450.35-1.1ZM460.25-1L460.25-1Q460.5-2.45 461.12-4.83 461.75-7.2 462.6-9.88 463.45-12.55 464.4-15.25 465.35-17.95 466.25-20.1L466.25-20.1Q466.9-21.65 467.4-22.53 467.9-23.4 468.5-24L468.5-24Q469.2-23.9 469.95-23.65 470.7-23.4 471.4-23.05 472.1-22.7 472.65-22.33 473.2-21.95 473.5-21.6L473.5-21.6Q472.15-20 471.12-17.95 470.1-15.9 469.05-12.7L469.05-12.7Q471.75-15.1 473.82-17.3 475.9-19.5 477.7-22.2L477.7-22.2Q478-22.45 478.75-22.45L478.75-22.45Q479.45-22.45 480.1-22.23 480.75-22 481-21.6L481-21.6Q480.1-19.2 480.1-16.85L480.1-16.85Q480.1-14.65 480.75-13.55L480.75-13.55Q480.7-13.25 480.07-12.4 479.45-11.55 478.7-10.8L478.7-10.8Q477.35-11.5 476.3-12.73 475.25-13.95 474.75-15.4L474.75-15.4Q472.4-13.75 470.75-12.18 469.1-10.6 467.92-8.68 466.75-6.75 465.92-4.25 465.1-1.75 464.35 1.7L464.35 1.7Q463.9 1.65 463.27 1.38 462.65 1.1 462.02 0.7 461.4 0.3 460.9-0.15 460.4-0.6 460.25-1ZM498.85-20.2L498.85-20.2Q499.35-20.2 500.02-20.03 500.69-19.85 501.25-19.58 501.8-19.3 502.17-19 502.55-18.7 502.55-18.45L502.55-18.45Q501.55-16.35 500.69-14.23 499.85-12.1 499.25-10.15 498.64-8.2 498.32-6.5 498-4.8 498-3.55L498-3.55Q498-2.15 498.3-1.23 498.6-0.3 499.3 0.1L499.3 0.1Q498.69 0.5 497.75 0.75 496.8 1 496.05 1L496.05 1Q493.35 1 493.35-2.7L493.35-2.7Q493.35-5.55 495.25-10.5L495.25-10.5Q494.25-8.2 492.94-6.18 491.64-4.15 490.3-2.6 488.94-1.05 487.57-0.08 486.19 0.9 485.05 1.1L485.05 1.1Q483.19 1 482.05-0.68 480.89-2.35 480.89-4.95L480.89-4.95Q480.89-7.75 482.1-10.85 483.3-13.95 485.17-16.6 487.05-19.25 489.25-21.03 491.44-22.8 493.5-22.9L493.5-22.9Q494-22.75 494.62-22.3 495.25-21.85 495.82-21.25 496.39-20.65 496.8-20.03 497.19-19.4 497.25-18.95L497.25-18.95Q495.25-18.65 493.12-17 491-15.35 489.27-13.03 487.55-10.7 486.44-8.05 485.35-5.4 485.35-3.1L485.35-3.1Q485.35-2.15 486.05-1.9L486.05-1.9Q487.5-2.2 489.39-4.38 491.3-6.55 494-11.1L494-11.1Q494.5-12 495.12-13.1 495.75-14.2 496.39-15.4 497.05-16.6 497.67-17.82 498.3-19.05 498.85-20.2ZM513.19-24.25L513.19-24.25Q514.49-23.85 515.64-22.48 516.79-21.1 517.34-19.45L517.34-19.45Q516.79-18.1 515.64-16.2 514.49-14.3 513.34-12.33 512.19-10.35 511.27-8.58 510.34-6.8 510.19-5.65L510.19-5.65Q510.99-6.5 511.97-7.63 512.94-8.75 513.87-9.88 514.79-11 515.59-11.93 516.39-12.85 516.84-13.3L516.84-13.3Q517.79-14.3 519.09-15.63 520.39-16.95 521.82-18.13 523.24-19.3 524.69-20.13 526.14-20.95 527.34-20.95L527.34-20.95Q528.64-20.95 529.52-20.08 530.39-19.2 530.89-18.25L530.89-18.25Q530.89-18.15 530.52-17.98 530.14-17.8 529.44-17L529.44-17Q528.74-16.1 527.87-14.53 526.99-12.95 526.17-11.13 525.34-9.3 524.79-7.4 524.24-5.5 524.24-3.95L524.24-3.95Q524.24-2.7 524.57-2.35 524.89-2 525.49-2L525.49-2Q526.04-2 526.64-2.25 527.24-2.5 527.59-2.5L527.59-2.5Q527.79-2.4 527.92-2.08 528.04-1.75 528.04-1.5L528.04-1.5Q527.64-1.15 527.09-0.8 526.54-0.45 525.94-0.15 525.34 0.15 524.77 0.35 524.19 0.55 523.74 0.55L523.74 0.55Q522.29 0.55 521.37 0.13 520.44-0.3 519.92-1 519.39-1.7 519.19-2.68 518.99-3.65 518.99-4.75L518.99-4.75Q518.99-5.35 519.09-6.1 519.19-6.85 519.49-7.88 519.79-8.9 520.34-10.33 520.89-11.75 521.74-13.75L521.74-13.75Q521.64-13.75 520.39-13.05 519.14-12.35 517.69-10.9L517.69-10.9Q515.34-8.65 513.47-6.45 511.59-4.25 509.64-1.55L509.64-1.55Q508.54 0 507.72 1.07 506.89 2.15 506.29 2.5L506.29 2.5Q505.24 1.9 504.74 0.83 504.24-0.25 503.99-1.4L503.99-1.4Q503.99-2.35 504.27-3.8 504.54-5.25 505.02-7.03 505.49-8.8 506.19-10.75 506.89-12.7 507.74-14.65L507.74-14.65Q509.64-19.05 511.22-21.55 512.79-24.05 513.19-24.25ZM537.89-19.15L535.04-19.15Q534.79-19.45 534.59-20.43 534.39-21.4 534.39-22.1L534.39-22.1Q535.69-22 536.89-21.93 538.09-21.85 539.09-21.8L539.09-21.8Q539.84-23.3 540.72-24.78 541.59-26.25 542.41-27.48 543.24-28.7 543.97-29.55 544.69-30.4 545.09-30.65L545.09-30.65Q545.59-30.65 546.37-30.48 547.14-30.3 547.94-30.03 548.74-29.75 549.39-29.45 550.04-29.15 550.29-28.85L550.29-28.85Q548.79-26.95 547.72-25.33 546.64-23.7 545.39-21.6L545.39-21.6Q546.39-21.6 547.41-21.65 548.44-21.7 549.49-21.8L549.49-21.8Q549.74-21.55 549.89-21.18 550.04-20.8 550.04-20.4L550.04-20.4Q547.59-19.5 544.09-19.4L544.09-19.4Q542.84-17 541.87-14.63 540.89-12.25 540.22-10.05 539.54-7.85 539.16-5.9 538.79-3.95 538.79-2.4L538.79-2.4Q538.79-0.2 540.44 0.05L540.44 0.05Q541.94-0.15 543.29-0.7 544.64-1.25 545.69-2.1L545.69-2.1Q545.99-1.65 546.04-1.35L546.04-1.35Q545.74-0.9 545.01-0.3 544.29 0.3 543.44 0.88 542.59 1.45 541.79 1.85 540.99 2.25 540.59 2.3L540.59 2.3Q539.34 2.25 538.09 1.75 536.84 1.25 535.82 0.5 534.79-0.25 534.14-1.18 533.49-2.1 533.49-3L533.49-3Q533.49-4.2 533.82-6.03 534.14-7.85 534.74-10 535.34-12.15 536.14-14.5 536.94-16.85 537.89-19.15L537.89-19.15Z" opacity="1" transform="matrix(1,0,0,1,0,0)" fill="#ffffff" class="slogan-text-1" data-fill-palette-color="secondary" id="text-1"></path></svg></g></svg></g></svg></g></svg></g><g transform="matrix(1,0,0,1,90.58944657921163,0)"><svg viewBox="0 0 74.82110684157675 75.06037363224168" height="75.06037363224168" width="74.82110684157675"><g><svg xmlns="http://www.w3.org/2000/svg" xmlns:xlink="http://www.w3.org/1999/xlink" version="1.1" x="0" y="0" viewBox="7.157190322875977 3.9860024452209473 89.67459869384766 89.96136474609375" enable-background="new 0 0 100 100" xml:space="preserve" height="75.06037363224168" width="74.82110684157675" class="icon-icon-0" data-fill-palette-color="accent" id="icon-0"><g fill="#fe6152" data-fill-palette-color="accent"><g fill="#fe6152" data-fill-palette-color="accent"><path d="M13.94 7.583c0 0-5.963-3.665-6.233 3.014-0.267 6.679 10.747 20.552 21.625 32.124 11.505 12.243 11.561 12.188 21.943 21.247l5.328 0.141c0 0 19.336 21.263 26.287 28.216 5.077 5.078 12.768-3.027 8.761-7.033L13.94 7.583z" fill="#fe6152" data-fill-palette-color="accent"></path><path d="M8.928 83.346c-5.346 5.346 2.518 14.812 8.934 8.399 6.414-6.415 23.93-23.93 23.93-23.93l-8.721-8.613C33.071 59.202 14.272 77.999 8.928 83.346z" fill="#fe6152" data-fill-palette-color="accent"></path><path d="M96.476 21.006c-0.773-1.869-2.612-3.122-4.577-3.122-1.284 0-2.491 0.528-3.49 1.528l-15.251 15.25c-2.038 2.039-4.656 2.168-6.37 0.458l-1.045-1.046c-2.396-2.394-0.65-5.404 0.604-6.661l14.919-14.919c1.597-1.594 2.088-3.659 1.317-5.523-0.74-1.785-2.521-2.985-4.434-2.985-0.963 0-2.41 0.299-3.833 1.72L58.315 21.706c-4.348 4.349-6.082 11.852-0.739 17.195 1.054 1.054 1.127 1.133 1.2 1.236 0.162 0.221 0.289 0.394 3.035 3.141 2.266 2.265 4.997 3.463 7.905 3.463 3.281 0 6.628-1.538 9.424-4.334l16.164-16.167C96.782 24.762 97.22 22.806 96.476 21.006z" fill="#fe6152" data-fill-palette-color="accent"></path></g></g></svg></g></svg></g><g></g></svg></g></svg></g></svg></g><defs></defs></svg><rect width="512" height="320" fill="none" stroke="none" visibility="hidden"></rect></g></svg></g></svg>