<?xml version="1.0" encoding="UTF-8"?>
<svg xmlns="http://www.w3.org/2000/svg" xmlns:xlink="http://www.w3.org/1999/xlink" width="100px" height="100px" viewBox="0 0 100 100" version="1.1">
<defs>
<clipPath id="clip1">
  <path d="M 28 28.125 L 72 28.125 L 72 71.875 L 28 71.875 Z M 28 28.125 "/>
</clipPath>
<clipPath id="clip2">
  <path d="M 32.5 51.902344 L 50 51.902344 L 50 55.996094 L 32.5 55.996094 Z M 32.5 51.902344 "/>
</clipPath>
<clipPath id="clip3">
  <path d="M 51 51.902344 L 67.5 51.902344 L 67.5 55.996094 L 51 55.996094 Z M 51 51.902344 "/>
</clipPath>
<clipPath id="clip4">
  <path d="M 39.183594 56.960938 L 60.8125 56.960938 L 60.8125 59.324219 L 39.183594 59.324219 Z M 39.183594 56.960938 "/>
</clipPath>
<clipPath id="clip5">
  <path d="M 44.886719 40.671875 L 55 40.671875 L 55 50.933594 L 44.886719 50.933594 Z M 44.886719 40.671875 "/>
</clipPath>
<clipPath id="clip6">
  <path d="M 44.886719 46 L 49 46 L 49 50.933594 L 44.886719 50.933594 Z M 44.886719 46 "/>
</clipPath>
<clipPath id="clip7">
  <path d="M 50 40.671875 L 55.117188 40.671875 L 55.117188 46 L 50 46 Z M 50 40.671875 "/>
</clipPath>
</defs>
<g id="surface1">
<rect x="0" y="0" width="100" height="100" style="fill:rgb(100%,100%,100%);fill-opacity:1;stroke:none;"/>
<g clip-path="url(#clip1)" clip-rule="nonzero">
<path style=" stroke:none;fill-rule:nonzero;fill:rgb(0%,0%,0%);fill-opacity:1;" d="M 28.125 50 C 28.125 37.917969 37.917969 28.125 50 28.125 C 62.082031 28.125 71.875 37.917969 71.875 50 C 71.875 62.082031 62.082031 71.875 50 71.875 C 37.917969 71.875 28.125 62.082031 28.125 50 Z M 50 71.136719 C 61.671875 71.136719 71.136719 61.671875 71.136719 50 C 71.136719 38.328125 61.671875 28.863281 50 28.863281 C 38.328125 28.863281 28.863281 38.328125 28.863281 50 C 28.863281 61.671875 38.328125 71.136719 50 71.136719 Z M 50 71.136719 "/>
</g>
<g clip-path="url(#clip2)" clip-rule="nonzero">
<path style=" stroke:none;fill-rule:nonzero;fill:rgb(0%,0%,0%);fill-opacity:1;" d="M 33.589844 55.996094 C 33.097656 55.996094 32.734375 55.785156 32.5 55.363281 L 32.863281 55.109375 C 32.949219 55.265625 33.050781 55.378906 33.164062 55.449219 C 33.277344 55.519531 33.402344 55.554688 33.542969 55.554688 C 33.753906 55.554688 33.914062 55.492188 34.019531 55.359375 C 34.121094 55.230469 34.175781 55.015625 34.175781 54.710938 L 34.175781 51.972656 L 34.679688 51.972656 L 34.679688 54.761719 C 34.679688 54.929688 34.660156 55.089844 34.617188 55.238281 C 34.574219 55.390625 34.511719 55.519531 34.425781 55.632812 C 34.339844 55.746094 34.226562 55.835938 34.089844 55.898438 C 33.949219 55.964844 33.785156 55.996094 33.589844 55.996094 Z M 36.425781 53.714844 L 36.238281 54.316406 L 37.425781 54.316406 L 37.238281 53.714844 C 37.167969 53.492188 37.097656 53.273438 37.035156 53.054688 C 36.96875 52.835938 36.90625 52.613281 36.839844 52.382812 L 36.816406 52.382812 C 36.757812 52.613281 36.695312 52.835938 36.632812 53.054688 C 36.566406 53.273438 36.5 53.492188 36.425781 53.714844 Z M 35.734375 55.921875 L 35.222656 55.921875 L 36.558594 51.972656 L 37.125 51.972656 L 38.460938 55.921875 L 37.925781 55.921875 L 37.550781 54.71875 L 36.113281 54.71875 Z M 39.519531 55.921875 L 39.019531 55.921875 L 39.019531 51.972656 L 40.253906 51.972656 C 40.457031 51.972656 40.640625 51.992188 40.8125 52.03125 C 40.980469 52.070312 41.128906 52.132812 41.25 52.21875 C 41.375 52.308594 41.46875 52.421875 41.539062 52.5625 C 41.605469 52.703125 41.640625 52.875 41.640625 53.082031 C 41.640625 53.390625 41.558594 53.636719 41.398438 53.820312 C 41.238281 54.007812 41.019531 54.132812 40.75 54.199219 L 41.753906 55.921875 L 41.1875 55.921875 L 40.238281 54.253906 L 39.519531 54.253906 Z M 39.519531 52.378906 L 39.519531 53.847656 L 40.183594 53.847656 C 40.492188 53.847656 40.726562 53.78125 40.894531 53.65625 C 41.058594 53.53125 41.140625 53.339844 41.140625 53.082031 C 41.140625 52.820312 41.058594 52.636719 40.894531 52.535156 C 40.726562 52.429688 40.492188 52.378906 40.183594 52.378906 Z M 43.75 55.921875 L 43.167969 55.921875 L 41.902344 51.972656 L 42.4375 51.972656 L 43.070312 54.105469 C 43.144531 54.339844 43.207031 54.558594 43.261719 54.761719 C 43.316406 54.960938 43.378906 55.179688 43.457031 55.410156 L 43.480469 55.410156 C 43.550781 55.179688 43.617188 54.960938 43.671875 54.761719 C 43.730469 54.558594 43.792969 54.339844 43.859375 54.105469 L 44.492188 51.972656 L 45.003906 51.972656 Z M 46.042969 55.921875 L 45.546875 55.921875 L 45.546875 51.972656 L 46.042969 51.972656 Z M 48.222656 55.996094 C 47.945312 55.996094 47.691406 55.941406 47.453125 55.839844 C 47.214844 55.734375 47.011719 55.589844 46.839844 55.410156 L 47.140625 55.0625 C 47.28125 55.210938 47.445312 55.328125 47.636719 55.421875 C 47.828125 55.511719 48.027344 55.554688 48.230469 55.554688 C 48.492188 55.554688 48.695312 55.496094 48.839844 55.378906 C 48.984375 55.257812 49.054688 55.105469 49.054688 54.910156 C 49.054688 54.8125 49.039062 54.726562 49.003906 54.65625 C 48.96875 54.585938 48.921875 54.523438 48.863281 54.472656 C 48.808594 54.425781 48.738281 54.378906 48.65625 54.339844 C 48.578125 54.300781 48.492188 54.257812 48.398438 54.214844 L 47.832031 53.964844 C 47.742188 53.925781 47.644531 53.878906 47.550781 53.820312 C 47.453125 53.765625 47.367188 53.699219 47.292969 53.617188 C 47.214844 53.535156 47.152344 53.441406 47.105469 53.332031 C 47.054688 53.21875 47.03125 53.09375 47.03125 52.949219 C 47.03125 52.800781 47.0625 52.660156 47.125 52.535156 C 47.1875 52.40625 47.273438 52.292969 47.382812 52.199219 C 47.496094 52.105469 47.625 52.03125 47.773438 51.980469 C 47.925781 51.925781 48.089844 51.902344 48.273438 51.902344 C 48.507812 51.902344 48.726562 51.945312 48.929688 52.039062 C 49.128906 52.128906 49.300781 52.246094 49.441406 52.390625 L 49.167969 52.714844 C 49.050781 52.597656 48.914062 52.507812 48.769531 52.441406 C 48.621094 52.375 48.457031 52.339844 48.273438 52.339844 C 48.050781 52.339844 47.875 52.390625 47.738281 52.492188 C 47.605469 52.597656 47.539062 52.738281 47.539062 52.917969 C 47.539062 53.015625 47.558594 53.097656 47.59375 53.160156 C 47.632812 53.230469 47.683594 53.285156 47.75 53.335938 C 47.8125 53.386719 47.882812 53.429688 47.960938 53.46875 C 48.035156 53.507812 48.113281 53.542969 48.195312 53.574219 L 48.753906 53.816406 C 48.867188 53.863281 48.972656 53.917969 49.074219 53.980469 C 49.171875 54.042969 49.257812 54.117188 49.332031 54.199219 C 49.402344 54.28125 49.460938 54.375 49.503906 54.488281 C 49.546875 54.597656 49.566406 54.726562 49.566406 54.871094 C 49.566406 55.027344 49.535156 55.171875 49.472656 55.308594 C 49.410156 55.445312 49.320312 55.5625 49.207031 55.667969 C 49.089844 55.769531 48.949219 55.847656 48.785156 55.90625 C 48.621094 55.964844 48.433594 55.996094 48.222656 55.996094 Z M 48.222656 55.996094 "/>
</g>
<g clip-path="url(#clip3)" clip-rule="nonzero">
<path style=" stroke:none;fill-rule:nonzero;fill:rgb(0%,0%,0%);fill-opacity:1;" d="M 51.8125 55.921875 L 51.3125 55.921875 L 51.3125 51.972656 L 52.546875 51.972656 C 52.746094 51.972656 52.933594 51.992188 53.101562 52.03125 C 53.273438 52.070312 53.421875 52.132812 53.542969 52.21875 C 53.664062 52.308594 53.761719 52.421875 53.828125 52.5625 C 53.898438 52.703125 53.929688 52.875 53.929688 53.082031 C 53.929688 53.390625 53.851562 53.636719 53.691406 53.820312 C 53.53125 54.007812 53.3125 54.132812 53.039062 54.199219 L 54.046875 55.921875 L 53.480469 55.921875 L 52.527344 54.253906 L 51.8125 54.253906 Z M 51.8125 52.378906 L 51.8125 53.847656 L 52.472656 53.847656 C 52.785156 53.847656 53.019531 53.78125 53.183594 53.65625 C 53.347656 53.53125 53.429688 53.339844 53.429688 53.082031 C 53.429688 52.820312 53.347656 52.636719 53.183594 52.535156 C 53.019531 52.429688 52.785156 52.378906 52.472656 52.378906 Z M 57.074219 55.921875 L 54.738281 55.921875 L 54.738281 51.972656 L 57.011719 51.972656 L 57.011719 52.394531 L 55.238281 52.394531 L 55.238281 53.636719 L 56.734375 53.636719 L 56.734375 54.0625 L 55.238281 54.0625 L 55.238281 55.496094 L 57.074219 55.496094 Z M 59.003906 55.996094 C 58.726562 55.996094 58.472656 55.941406 58.234375 55.839844 C 57.996094 55.734375 57.792969 55.589844 57.621094 55.410156 L 57.921875 55.0625 C 58.0625 55.210938 58.226562 55.328125 58.417969 55.421875 C 58.609375 55.511719 58.804688 55.554688 59.011719 55.554688 C 59.273438 55.554688 59.472656 55.496094 59.617188 55.378906 C 59.761719 55.257812 59.835938 55.105469 59.835938 54.910156 C 59.835938 54.8125 59.820312 54.726562 59.785156 54.65625 C 59.75 54.585938 59.703125 54.523438 59.644531 54.472656 C 59.585938 54.425781 59.519531 54.378906 59.4375 54.339844 C 59.359375 54.300781 59.273438 54.257812 59.179688 54.214844 L 58.613281 53.964844 C 58.519531 53.925781 58.425781 53.878906 58.332031 53.820312 C 58.234375 53.765625 58.148438 53.699219 58.070312 53.617188 C 57.996094 53.535156 57.933594 53.441406 57.886719 53.332031 C 57.835938 53.21875 57.8125 53.09375 57.8125 52.949219 C 57.8125 52.800781 57.84375 52.660156 57.90625 52.535156 C 57.96875 52.40625 58.054688 52.292969 58.164062 52.199219 C 58.277344 52.105469 58.40625 52.03125 58.558594 51.980469 C 58.707031 51.925781 58.871094 51.902344 59.054688 51.902344 C 59.289062 51.902344 59.507812 51.945312 59.707031 52.039062 C 59.910156 52.128906 60.082031 52.246094 60.21875 52.390625 L 59.949219 52.714844 C 59.828125 52.597656 59.695312 52.507812 59.550781 52.441406 C 59.402344 52.375 59.238281 52.339844 59.054688 52.339844 C 58.832031 52.339844 58.65625 52.390625 58.519531 52.492188 C 58.386719 52.597656 58.320312 52.738281 58.320312 52.917969 C 58.320312 53.015625 58.335938 53.097656 58.375 53.160156 C 58.414062 53.230469 58.464844 53.285156 58.527344 53.335938 C 58.59375 53.386719 58.664062 53.429688 58.738281 53.46875 C 58.816406 53.507812 58.894531 53.542969 58.972656 53.574219 L 59.535156 53.816406 C 59.648438 53.863281 59.753906 53.917969 59.851562 53.980469 C 59.953125 54.042969 60.039062 54.117188 60.113281 54.199219 C 60.183594 54.28125 60.242188 54.375 60.285156 54.488281 C 60.328125 54.597656 60.347656 54.726562 60.347656 54.871094 C 60.347656 55.027344 60.316406 55.171875 60.253906 55.308594 C 60.191406 55.445312 60.101562 55.5625 59.984375 55.667969 C 59.871094 55.769531 59.730469 55.847656 59.566406 55.90625 C 59.398438 55.964844 59.214844 55.996094 59.003906 55.996094 Z M 62.449219 55.921875 L 61.941406 55.921875 L 61.941406 52.394531 L 60.75 52.394531 L 60.75 51.972656 L 63.640625 51.972656 L 63.640625 52.394531 L 62.449219 52.394531 Z M 65.808594 55.996094 C 65.558594 55.996094 65.332031 55.945312 65.125 55.851562 C 64.917969 55.753906 64.738281 55.617188 64.589844 55.4375 C 64.441406 55.257812 64.328125 55.042969 64.246094 54.789062 C 64.164062 54.53125 64.121094 54.246094 64.121094 53.929688 C 64.121094 53.613281 64.164062 53.328125 64.246094 53.078125 C 64.328125 52.828125 64.441406 52.613281 64.589844 52.441406 C 64.738281 52.265625 64.917969 52.132812 65.125 52.039062 C 65.332031 51.949219 65.558594 51.902344 65.808594 51.902344 C 66.054688 51.902344 66.285156 51.949219 66.488281 52.042969 C 66.695312 52.136719 66.875 52.273438 67.027344 52.445312 C 67.175781 52.621094 67.292969 52.832031 67.375 53.082031 C 67.457031 53.335938 67.5 53.617188 67.5 53.929688 C 67.5 54.246094 67.457031 54.53125 67.375 54.789062 C 67.292969 55.042969 67.175781 55.257812 67.027344 55.4375 C 66.875 55.617188 66.695312 55.753906 66.488281 55.851562 C 66.285156 55.945312 66.054688 55.996094 65.808594 55.996094 Z M 65.808594 55.554688 C 65.984375 55.554688 66.144531 55.515625 66.285156 55.441406 C 66.429688 55.363281 66.550781 55.253906 66.652344 55.113281 C 66.753906 54.96875 66.835938 54.800781 66.890625 54.601562 C 66.945312 54.402344 66.976562 54.179688 66.976562 53.929688 C 66.976562 53.683594 66.945312 53.464844 66.890625 53.269531 C 66.835938 53.070312 66.753906 52.90625 66.652344 52.769531 C 66.550781 52.632812 66.429688 52.527344 66.285156 52.453125 C 66.144531 52.378906 65.984375 52.339844 65.808594 52.339844 C 65.628906 52.339844 65.472656 52.378906 65.328125 52.453125 C 65.1875 52.527344 65.0625 52.632812 64.960938 52.769531 C 64.859375 52.90625 64.78125 53.070312 64.722656 53.269531 C 64.667969 53.464844 64.640625 53.683594 64.640625 53.929688 C 64.640625 54.179688 64.667969 54.402344 64.722656 54.601562 C 64.78125 54.800781 64.859375 54.96875 64.960938 55.113281 C 65.0625 55.253906 65.1875 55.363281 65.328125 55.441406 C 65.472656 55.515625 65.628906 55.554688 65.808594 55.554688 Z M 65.808594 55.554688 "/>
</g>
<g clip-path="url(#clip4)" clip-rule="nonzero">
<path style=" stroke:none;fill-rule:nonzero;fill:rgb(0%,0%,0%);fill-opacity:1;" d="M 39.992188 57.765625 C 40.035156 57.765625 40.070312 57.777344 40.09375 57.800781 C 40.117188 57.824219 40.128906 57.859375 40.128906 57.898438 C 40.128906 57.910156 40.128906 57.921875 40.128906 57.933594 C 40.125 57.945312 40.125 57.953125 40.121094 57.960938 C 40.105469 57.960938 40.085938 57.957031 40.0625 57.953125 C 40.042969 57.953125 40.015625 57.953125 39.988281 57.953125 C 39.929688 57.953125 39.875 57.957031 39.816406 57.964844 C 39.757812 57.976562 39.703125 57.984375 39.648438 57.992188 C 39.617188 58.0625 39.589844 58.128906 39.566406 58.195312 C 39.539062 58.261719 39.519531 58.320312 39.5 58.375 C 39.484375 58.429688 39.46875 58.476562 39.460938 58.515625 C 39.449219 58.554688 39.445312 58.585938 39.441406 58.605469 C 39.550781 58.582031 39.65625 58.5625 39.765625 58.546875 C 39.875 58.53125 39.992188 58.519531 40.109375 58.511719 C 40.125 58.535156 40.136719 58.558594 40.148438 58.585938 C 40.15625 58.609375 40.164062 58.640625 40.164062 58.671875 C 40.164062 58.679688 40.164062 58.6875 40.164062 58.695312 C 40.164062 58.707031 40.160156 58.714844 40.160156 58.722656 C 40.121094 58.722656 40.082031 58.722656 40.042969 58.722656 C 40 58.71875 39.945312 58.71875 39.878906 58.71875 C 39.835938 58.71875 39.796875 58.722656 39.757812 58.722656 C 39.71875 58.726562 39.679688 58.726562 39.640625 58.730469 C 39.597656 58.734375 39.558594 58.742188 39.511719 58.746094 C 39.46875 58.753906 39.417969 58.761719 39.363281 58.769531 C 39.300781 58.746094 39.242188 58.6875 39.1875 58.597656 C 39.207031 58.550781 39.238281 58.476562 39.28125 58.378906 C 39.320312 58.28125 39.371094 58.152344 39.433594 57.988281 C 39.375 57.972656 39.335938 57.9375 39.316406 57.890625 C 39.324219 57.882812 39.34375 57.875 39.375 57.863281 C 39.40625 57.855469 39.445312 57.84375 39.492188 57.835938 C 39.511719 57.78125 39.527344 57.738281 39.542969 57.699219 C 39.554688 57.660156 39.570312 57.625 39.578125 57.589844 C 39.589844 57.558594 39.597656 57.523438 39.609375 57.492188 C 39.617188 57.460938 39.625 57.425781 39.632812 57.386719 C 39.585938 57.382812 39.550781 57.371094 39.523438 57.347656 C 39.496094 57.324219 39.484375 57.292969 39.484375 57.257812 C 39.484375 57.246094 39.484375 57.234375 39.488281 57.21875 C 39.492188 57.203125 39.496094 57.191406 39.5 57.183594 C 39.527344 57.1875 39.550781 57.1875 39.578125 57.191406 C 39.601562 57.191406 39.632812 57.191406 39.671875 57.191406 C 39.753906 57.191406 39.832031 57.1875 39.90625 57.183594 C 39.980469 57.179688 40.046875 57.175781 40.105469 57.167969 C 40.164062 57.164062 40.214844 57.160156 40.257812 57.15625 C 40.296875 57.148438 40.332031 57.148438 40.351562 57.148438 C 40.382812 57.148438 40.410156 57.164062 40.433594 57.195312 C 40.457031 57.226562 40.476562 57.273438 40.488281 57.332031 C 40.445312 57.328125 40.414062 57.324219 40.386719 57.324219 C 40.363281 57.320312 40.339844 57.320312 40.320312 57.320312 C 40.246094 57.320312 40.179688 57.324219 40.121094 57.332031 C 40.058594 57.339844 40 57.347656 39.945312 57.355469 C 39.9375 57.367188 39.929688 57.382812 39.917969 57.398438 C 39.910156 57.417969 39.898438 57.445312 39.878906 57.476562 C 39.863281 57.511719 39.84375 57.550781 39.824219 57.601562 C 39.800781 57.652344 39.769531 57.714844 39.738281 57.789062 C 39.789062 57.78125 39.835938 57.777344 39.878906 57.773438 C 39.925781 57.765625 39.960938 57.765625 39.992188 57.765625 Z M 40.988281 58.597656 C 40.976562 58.621094 40.953125 58.640625 40.921875 58.652344 C 40.890625 58.667969 40.859375 58.675781 40.832031 58.679688 C 40.8125 58.652344 40.785156 58.617188 40.757812 58.570312 C 40.730469 58.523438 40.703125 58.472656 40.679688 58.410156 C 40.609375 58.472656 40.542969 58.527344 40.476562 58.574219 C 40.410156 58.625 40.347656 58.667969 40.289062 58.703125 C 40.273438 58.699219 40.261719 58.691406 40.25 58.679688 C 40.242188 58.664062 40.238281 58.648438 40.234375 58.625 C 40.261719 58.613281 40.292969 58.59375 40.332031 58.570312 C 40.367188 58.546875 40.402344 58.519531 40.441406 58.492188 C 40.480469 58.460938 40.515625 58.433594 40.550781 58.402344 C 40.585938 58.371094 40.617188 58.339844 40.640625 58.3125 C 40.617188 58.257812 40.597656 58.203125 40.578125 58.148438 C 40.558594 58.089844 40.542969 58.035156 40.527344 57.984375 C 40.515625 57.933594 40.503906 57.882812 40.496094 57.839844 C 40.488281 57.796875 40.484375 57.765625 40.484375 57.738281 C 40.484375 57.71875 40.488281 57.707031 40.492188 57.699219 C 40.496094 57.695312 40.507812 57.691406 40.523438 57.691406 C 40.535156 57.691406 40.554688 57.691406 40.570312 57.695312 C 40.589844 57.699219 40.609375 57.703125 40.632812 57.707031 C 40.652344 57.710938 40.671875 57.714844 40.691406 57.71875 C 40.710938 57.722656 40.726562 57.726562 40.742188 57.734375 C 40.738281 57.746094 40.738281 57.761719 40.738281 57.769531 C 40.738281 57.78125 40.738281 57.796875 40.738281 57.816406 C 40.738281 57.867188 40.742188 57.921875 40.75 57.972656 C 40.757812 58.027344 40.773438 58.085938 40.792969 58.148438 C 40.847656 58.085938 40.898438 58.015625 40.945312 57.941406 C 40.992188 57.863281 41.039062 57.773438 41.085938 57.667969 C 41.117188 57.675781 41.148438 57.683594 41.171875 57.695312 C 41.195312 57.710938 41.210938 57.722656 41.214844 57.738281 C 41.203125 57.796875 41.160156 57.875 41.09375 57.96875 C 41.027344 58.058594 40.941406 58.160156 40.835938 58.261719 C 40.855469 58.3125 40.875 58.367188 40.902344 58.421875 C 40.929688 58.480469 40.957031 58.539062 40.988281 58.597656 Z M 41.449219 57.851562 L 41.335938 57.851562 C 41.328125 57.84375 41.324219 57.824219 41.316406 57.800781 C 41.3125 57.773438 41.308594 57.753906 41.308594 57.734375 C 41.34375 57.734375 41.378906 57.738281 41.410156 57.738281 C 41.441406 57.742188 41.46875 57.742188 41.496094 57.746094 C 41.515625 57.707031 41.539062 57.667969 41.5625 57.628906 C 41.582031 57.589844 41.605469 57.550781 41.628906 57.519531 C 41.648438 57.488281 41.671875 57.460938 41.691406 57.4375 C 41.707031 57.414062 41.722656 57.402344 41.734375 57.394531 C 41.746094 57.394531 41.765625 57.394531 41.785156 57.402344 C 41.804688 57.40625 41.828125 57.410156 41.847656 57.417969 C 41.867188 57.425781 41.886719 57.433594 41.90625 57.441406 C 41.921875 57.449219 41.933594 57.457031 41.941406 57.464844 C 41.902344 57.515625 41.867188 57.5625 41.839844 57.605469 C 41.808594 57.648438 41.78125 57.699219 41.746094 57.753906 C 41.773438 57.753906 41.800781 57.753906 41.828125 57.75 C 41.855469 57.75 41.882812 57.746094 41.910156 57.746094 C 41.914062 57.753906 41.921875 57.761719 41.925781 57.769531 C 41.929688 57.78125 41.929688 57.789062 41.929688 57.800781 C 41.867188 57.824219 41.785156 57.839844 41.695312 57.839844 C 41.660156 57.902344 41.632812 57.96875 41.605469 58.03125 C 41.582031 58.09375 41.558594 58.152344 41.539062 58.210938 C 41.523438 58.269531 41.507812 58.324219 41.5 58.375 C 41.488281 58.429688 41.484375 58.472656 41.484375 58.515625 C 41.484375 58.574219 41.507812 58.605469 41.550781 58.613281 C 41.589844 58.605469 41.628906 58.597656 41.664062 58.582031 C 41.699219 58.566406 41.730469 58.550781 41.757812 58.527344 C 41.765625 58.539062 41.769531 58.550781 41.773438 58.558594 C 41.765625 58.570312 41.75 58.582031 41.730469 58.597656 C 41.710938 58.613281 41.691406 58.628906 41.667969 58.644531 C 41.644531 58.660156 41.625 58.671875 41.601562 58.683594 C 41.582031 58.695312 41.566406 58.699219 41.554688 58.703125 C 41.523438 58.699219 41.488281 58.691406 41.457031 58.679688 C 41.421875 58.667969 41.394531 58.648438 41.367188 58.628906 C 41.339844 58.609375 41.316406 58.589844 41.300781 58.5625 C 41.28125 58.539062 41.273438 58.515625 41.273438 58.492188 C 41.273438 58.460938 41.277344 58.417969 41.285156 58.371094 C 41.296875 58.324219 41.308594 58.269531 41.324219 58.214844 C 41.339844 58.15625 41.359375 58.097656 41.378906 58.035156 C 41.398438 57.972656 41.421875 57.910156 41.449219 57.851562 Z M 41.867188 58.570312 C 41.875 58.53125 41.886719 58.480469 41.902344 58.417969 C 41.921875 58.355469 41.941406 58.289062 41.960938 58.21875 C 41.984375 58.148438 42.007812 58.078125 42.035156 58.003906 C 42.058594 57.933594 42.082031 57.871094 42.105469 57.8125 C 42.125 57.773438 42.140625 57.738281 42.152344 57.714844 C 42.164062 57.691406 42.179688 57.675781 42.195312 57.65625 C 42.214844 57.660156 42.234375 57.664062 42.253906 57.671875 C 42.273438 57.679688 42.292969 57.6875 42.3125 57.695312 C 42.328125 57.703125 42.347656 57.714844 42.359375 57.722656 C 42.375 57.734375 42.386719 57.742188 42.394531 57.753906 C 42.359375 57.796875 42.328125 57.84375 42.300781 57.898438 C 42.273438 57.953125 42.246094 58.023438 42.21875 58.105469 C 42.289062 58.042969 42.351562 57.980469 42.40625 57.925781 C 42.460938 57.867188 42.515625 57.800781 42.5625 57.730469 C 42.570312 57.722656 42.582031 57.71875 42.601562 57.71875 C 42.621094 57.71875 42.640625 57.722656 42.65625 57.726562 C 42.675781 57.734375 42.6875 57.742188 42.691406 57.753906 C 42.667969 57.816406 42.65625 57.878906 42.65625 57.941406 C 42.65625 58 42.664062 58.042969 42.683594 58.074219 C 42.679688 58.082031 42.671875 58.097656 42.65625 58.117188 C 42.640625 58.140625 42.621094 58.164062 42.601562 58.183594 C 42.566406 58.164062 42.535156 58.136719 42.507812 58.105469 C 42.476562 58.074219 42.457031 58.039062 42.445312 58 C 42.382812 58.042969 42.328125 58.085938 42.285156 58.128906 C 42.242188 58.167969 42.203125 58.214844 42.171875 58.265625 C 42.140625 58.316406 42.117188 58.375 42.09375 58.441406 C 42.074219 58.507812 42.050781 58.585938 42.03125 58.679688 C 42.019531 58.675781 42.003906 58.671875 41.988281 58.664062 C 41.972656 58.65625 41.957031 58.648438 41.941406 58.636719 C 41.921875 58.628906 41.90625 58.617188 41.894531 58.605469 C 41.882812 58.59375 41.871094 58.582031 41.867188 58.570312 Z M 43.402344 57.808594 C 43.414062 57.808594 43.429688 57.8125 43.449219 57.816406 C 43.464844 57.820312 43.480469 57.828125 43.496094 57.832031 C 43.511719 57.839844 43.523438 57.847656 43.535156 57.855469 C 43.542969 57.863281 43.546875 57.871094 43.546875 57.878906 C 43.519531 57.933594 43.496094 57.988281 43.472656 58.046875 C 43.453125 58.101562 43.433594 58.15625 43.417969 58.207031 C 43.402344 58.257812 43.390625 58.308594 43.378906 58.351562 C 43.371094 58.398438 43.367188 58.4375 43.367188 58.46875 C 43.367188 58.507812 43.371094 58.539062 43.378906 58.5625 C 43.386719 58.585938 43.402344 58.605469 43.417969 58.613281 C 43.402344 58.625 43.382812 58.632812 43.355469 58.640625 C 43.332031 58.648438 43.308594 58.648438 43.289062 58.648438 C 43.21875 58.648438 43.183594 58.601562 43.183594 58.503906 C 43.183594 58.429688 43.207031 58.324219 43.257812 58.195312 C 43.230469 58.253906 43.203125 58.3125 43.167969 58.367188 C 43.132812 58.417969 43.097656 58.464844 43.0625 58.507812 C 43.027344 58.546875 42.988281 58.582031 42.953125 58.609375 C 42.917969 58.632812 42.882812 58.648438 42.851562 58.652344 C 42.804688 58.652344 42.765625 58.628906 42.734375 58.582031 C 42.703125 58.539062 42.6875 58.484375 42.6875 58.414062 C 42.6875 58.339844 42.703125 58.261719 42.734375 58.179688 C 42.769531 58.097656 42.808594 58.023438 42.859375 57.953125 C 42.90625 57.882812 42.960938 57.824219 43.019531 57.777344 C 43.078125 57.730469 43.132812 57.703125 43.1875 57.703125 C 43.203125 57.707031 43.21875 57.714844 43.234375 57.726562 C 43.25 57.738281 43.265625 57.75 43.28125 57.765625 C 43.296875 57.78125 43.308594 57.800781 43.320312 57.816406 C 43.332031 57.832031 43.335938 57.847656 43.335938 57.859375 C 43.285156 57.867188 43.230469 57.890625 43.175781 57.9375 C 43.117188 57.980469 43.066406 58.03125 43.019531 58.09375 C 42.976562 58.15625 42.9375 58.222656 42.910156 58.292969 C 42.878906 58.359375 42.863281 58.425781 42.863281 58.488281 C 42.863281 58.511719 42.875 58.527344 42.894531 58.535156 C 42.929688 58.527344 42.976562 58.496094 43.027344 58.4375 C 43.078125 58.378906 43.136719 58.289062 43.207031 58.171875 C 43.222656 58.144531 43.238281 58.121094 43.253906 58.089844 C 43.269531 58.0625 43.285156 58.03125 43.304688 58 C 43.320312 57.96875 43.339844 57.9375 43.355469 57.902344 C 43.371094 57.871094 43.386719 57.839844 43.402344 57.808594 Z M 45.042969 57.164062 C 45.070312 57.175781 45.09375 57.191406 45.121094 57.207031 C 45.148438 57.222656 45.171875 57.238281 45.195312 57.257812 C 45.21875 57.273438 45.238281 57.292969 45.25 57.308594 C 45.265625 57.324219 45.273438 57.335938 45.277344 57.347656 C 45.253906 57.34375 45.230469 57.339844 45.210938 57.335938 C 45.1875 57.335938 45.164062 57.335938 45.148438 57.335938 C 45.089844 57.335938 45.027344 57.347656 44.96875 57.378906 C 44.910156 57.40625 44.855469 57.445312 44.800781 57.496094 C 44.75 57.546875 44.699219 57.605469 44.65625 57.675781 C 44.609375 57.742188 44.570312 57.8125 44.539062 57.890625 C 44.507812 57.96875 44.480469 58.046875 44.460938 58.128906 C 44.445312 58.210938 44.433594 58.292969 44.433594 58.371094 C 44.433594 58.472656 44.453125 58.550781 44.488281 58.601562 C 44.519531 58.652344 44.570312 58.675781 44.636719 58.675781 C 44.667969 58.675781 44.703125 58.667969 44.742188 58.65625 C 44.777344 58.644531 44.816406 58.628906 44.855469 58.605469 C 44.890625 58.582031 44.929688 58.554688 44.96875 58.523438 C 45.003906 58.492188 45.039062 58.457031 45.070312 58.417969 C 45.117188 58.363281 45.15625 58.300781 45.195312 58.226562 C 45.230469 58.15625 45.261719 58.082031 45.289062 58.003906 C 45.316406 57.925781 45.335938 57.84375 45.347656 57.757812 C 45.363281 57.675781 45.371094 57.59375 45.371094 57.511719 C 45.371094 57.480469 45.367188 57.453125 45.367188 57.429688 C 45.367188 57.410156 45.363281 57.390625 45.363281 57.375 C 45.359375 57.359375 45.359375 57.347656 45.359375 57.339844 C 45.355469 57.328125 45.355469 57.320312 45.355469 57.316406 C 45.371094 57.324219 45.386719 57.332031 45.40625 57.34375 C 45.425781 57.355469 45.445312 57.371094 45.460938 57.394531 C 45.476562 57.414062 45.492188 57.445312 45.5 57.480469 C 45.511719 57.515625 45.519531 57.5625 45.519531 57.617188 C 45.519531 57.710938 45.507812 57.800781 45.484375 57.890625 C 45.464844 57.980469 45.433594 58.066406 45.394531 58.144531 C 45.355469 58.226562 45.308594 58.300781 45.257812 58.371094 C 45.203125 58.441406 45.148438 58.503906 45.085938 58.558594 C 45.007812 58.628906 44.921875 58.679688 44.832031 58.71875 C 44.742188 58.757812 44.65625 58.777344 44.570312 58.777344 C 44.449219 58.777344 44.355469 58.738281 44.292969 58.660156 C 44.230469 58.582031 44.195312 58.46875 44.195312 58.320312 C 44.195312 58.238281 44.207031 58.152344 44.222656 58.0625 C 44.242188 57.972656 44.265625 57.882812 44.300781 57.796875 C 44.332031 57.710938 44.371094 57.625 44.414062 57.546875 C 44.460938 57.46875 44.507812 57.398438 44.5625 57.339844 C 44.617188 57.28125 44.675781 57.230469 44.734375 57.195312 C 44.796875 57.160156 44.859375 57.140625 44.925781 57.140625 C 44.945312 57.140625 44.964844 57.144531 44.984375 57.148438 C 45.003906 57.148438 45.023438 57.15625 45.042969 57.164062 Z M 45.488281 58.570312 C 45.492188 58.53125 45.503906 58.480469 45.519531 58.417969 C 45.539062 58.355469 45.558594 58.289062 45.578125 58.21875 C 45.601562 58.148438 45.625 58.078125 45.652344 58.003906 C 45.675781 57.933594 45.699219 57.871094 45.722656 57.8125 C 45.742188 57.773438 45.757812 57.738281 45.769531 57.714844 C 45.785156 57.691406 45.796875 57.675781 45.8125 57.65625 C 45.832031 57.660156 45.851562 57.664062 45.871094 57.671875 C 45.890625 57.679688 45.910156 57.6875 45.929688 57.695312 C 45.949219 57.703125 45.964844 57.714844 45.980469 57.722656 C 45.992188 57.734375 46.003906 57.742188 46.011719 57.753906 C 45.976562 57.796875 45.945312 57.84375 45.917969 57.898438 C 45.890625 57.953125 45.863281 58.023438 45.835938 58.105469 C 45.90625 58.042969 45.96875 57.980469 46.027344 57.925781 C 46.082031 57.867188 46.132812 57.800781 46.179688 57.730469 C 46.1875 57.722656 46.199219 57.71875 46.222656 57.71875 C 46.238281 57.71875 46.257812 57.722656 46.273438 57.726562 C 46.292969 57.734375 46.304688 57.742188 46.308594 57.753906 C 46.285156 57.816406 46.273438 57.878906 46.273438 57.941406 C 46.273438 58 46.28125 58.042969 46.300781 58.074219 C 46.296875 58.082031 46.289062 58.097656 46.273438 58.117188 C 46.257812 58.140625 46.238281 58.164062 46.21875 58.183594 C 46.183594 58.164062 46.152344 58.136719 46.125 58.105469 C 46.097656 58.074219 46.074219 58.039062 46.0625 58 C 46 58.042969 45.945312 58.085938 45.902344 58.128906 C 45.859375 58.167969 45.820312 58.214844 45.792969 58.265625 C 45.761719 58.316406 45.734375 58.375 45.710938 58.441406 C 45.691406 58.507812 45.667969 58.585938 45.648438 58.679688 C 45.636719 58.675781 45.625 58.671875 45.605469 58.664062 C 45.589844 58.65625 45.574219 58.648438 45.558594 58.636719 C 45.539062 58.628906 45.527344 58.617188 45.511719 58.605469 C 45.5 58.59375 45.492188 58.582031 45.488281 58.570312 Z M 46.765625 57.683594 C 46.792969 57.683594 46.824219 57.691406 46.859375 57.707031 C 46.890625 57.722656 46.921875 57.742188 46.949219 57.769531 C 46.941406 57.714844 46.933594 57.667969 46.925781 57.617188 C 46.914062 57.574219 46.898438 57.523438 46.878906 57.472656 C 46.863281 57.421875 46.835938 57.367188 46.804688 57.308594 C 46.773438 57.25 46.734375 57.179688 46.683594 57.105469 C 46.6875 57.09375 46.699219 57.078125 46.710938 57.0625 C 46.726562 57.046875 46.742188 57.03125 46.761719 57.019531 C 46.777344 57.003906 46.796875 56.992188 46.816406 56.980469 C 46.835938 56.972656 46.851562 56.964844 46.871094 56.960938 C 46.90625 57.003906 46.941406 57.054688 46.976562 57.113281 C 47.007812 57.175781 47.035156 57.242188 47.0625 57.3125 C 47.085938 57.382812 47.105469 57.457031 47.121094 57.53125 C 47.132812 57.609375 47.140625 57.679688 47.140625 57.75 C 47.140625 57.816406 47.132812 57.890625 47.117188 57.960938 C 47.105469 58.035156 47.082031 58.105469 47.054688 58.175781 C 47.027344 58.246094 46.996094 58.308594 46.960938 58.371094 C 46.925781 58.433594 46.886719 58.492188 46.84375 58.539062 C 46.804688 58.589844 46.761719 58.628906 46.714844 58.660156 C 46.671875 58.691406 46.625 58.710938 46.578125 58.71875 C 46.488281 58.707031 46.417969 58.679688 46.371094 58.628906 C 46.324219 58.582031 46.296875 58.515625 46.296875 58.429688 C 46.296875 58.386719 46.304688 58.335938 46.320312 58.28125 C 46.332031 58.230469 46.351562 58.175781 46.375 58.125 C 46.398438 58.074219 46.425781 58.023438 46.457031 57.972656 C 46.488281 57.921875 46.519531 57.878906 46.554688 57.839844 C 46.589844 57.800781 46.625 57.765625 46.660156 57.738281 C 46.695312 57.710938 46.730469 57.691406 46.765625 57.683594 Z M 46.5625 58.636719 C 46.609375 58.621094 46.65625 58.585938 46.703125 58.535156 C 46.75 58.480469 46.789062 58.414062 46.828125 58.339844 C 46.863281 58.269531 46.894531 58.191406 46.917969 58.105469 C 46.941406 58.019531 46.953125 57.941406 46.953125 57.863281 C 46.953125 57.839844 46.953125 57.824219 46.953125 57.820312 C 46.953125 57.816406 46.953125 57.808594 46.949219 57.804688 C 46.917969 57.816406 46.886719 57.839844 46.851562 57.871094 C 46.8125 57.902344 46.777344 57.941406 46.742188 57.980469 C 46.707031 58.023438 46.671875 58.070312 46.640625 58.117188 C 46.609375 58.167969 46.582031 58.214844 46.554688 58.265625 C 46.53125 58.3125 46.511719 58.359375 46.496094 58.40625 C 46.480469 58.453125 46.476562 58.492188 46.476562 58.523438 C 46.476562 58.589844 46.503906 58.628906 46.5625 58.636719 Z M 47.195312 58.476562 C 47.195312 58.464844 47.195312 58.449219 47.199219 58.433594 C 47.199219 58.414062 47.203125 58.390625 47.210938 58.363281 C 47.214844 58.332031 47.222656 58.296875 47.230469 58.253906 C 47.238281 58.210938 47.25 58.160156 47.261719 58.101562 C 47.265625 58.085938 47.269531 58.066406 47.28125 58.035156 C 47.289062 58.007812 47.300781 57.976562 47.316406 57.945312 C 47.332031 57.914062 47.351562 57.882812 47.371094 57.851562 C 47.394531 57.820312 47.421875 57.796875 47.453125 57.78125 C 47.472656 57.789062 47.503906 57.800781 47.539062 57.824219 C 47.578125 57.84375 47.609375 57.875 47.636719 57.914062 C 47.605469 57.949219 47.578125 57.984375 47.558594 58.015625 C 47.539062 58.050781 47.519531 58.085938 47.503906 58.125 C 47.488281 58.160156 47.472656 58.199219 47.457031 58.238281 C 47.445312 58.277344 47.429688 58.320312 47.410156 58.363281 C 47.398438 58.402344 47.382812 58.441406 47.371094 58.476562 C 47.359375 58.519531 47.351562 58.550781 47.351562 58.582031 C 47.351562 58.605469 47.351562 58.621094 47.351562 58.632812 C 47.351562 58.640625 47.347656 58.644531 47.339844 58.644531 C 47.335938 58.644531 47.324219 58.644531 47.308594 58.636719 C 47.292969 58.628906 47.277344 58.621094 47.257812 58.605469 C 47.242188 58.589844 47.226562 58.574219 47.214844 58.554688 C 47.203125 58.53125 47.195312 58.507812 47.195312 58.476562 Z M 47.574219 57.617188 C 47.574219 57.609375 47.578125 57.597656 47.582031 57.582031 C 47.574219 57.574219 47.566406 57.5625 47.5625 57.550781 C 47.558594 57.539062 47.554688 57.527344 47.554688 57.515625 C 47.554688 57.503906 47.558594 57.488281 47.5625 57.464844 C 47.566406 57.445312 47.570312 57.425781 47.574219 57.398438 C 47.578125 57.375 47.585938 57.351562 47.59375 57.324219 C 47.601562 57.300781 47.609375 57.277344 47.617188 57.253906 C 47.632812 57.253906 47.652344 57.257812 47.675781 57.269531 C 47.699219 57.277344 47.722656 57.289062 47.746094 57.300781 C 47.769531 57.316406 47.792969 57.332031 47.8125 57.347656 C 47.832031 57.363281 47.847656 57.378906 47.859375 57.394531 C 47.84375 57.410156 47.824219 57.429688 47.800781 57.453125 C 47.777344 57.480469 47.753906 57.507812 47.730469 57.535156 C 47.707031 57.5625 47.6875 57.589844 47.667969 57.617188 C 47.652344 57.640625 47.640625 57.660156 47.632812 57.671875 C 47.617188 57.667969 47.605469 57.660156 47.59375 57.648438 C 47.582031 57.636719 47.574219 57.625 47.574219 57.617188 Z M 47.984375 57.648438 C 48.015625 57.660156 48.050781 57.683594 48.082031 57.71875 C 48.109375 57.753906 48.132812 57.796875 48.148438 57.839844 C 48.132812 57.875 48.109375 57.917969 48.082031 57.96875 C 48.050781 58.019531 48.019531 58.070312 47.988281 58.121094 C 47.957031 58.171875 47.929688 58.222656 47.90625 58.269531 C 47.882812 58.316406 47.867188 58.355469 47.863281 58.386719 C 47.886719 58.363281 47.910156 58.335938 47.933594 58.308594 C 47.960938 58.277344 47.984375 58.25 48.007812 58.21875 C 48.035156 58.1875 48.058594 58.160156 48.078125 58.136719 C 48.097656 58.113281 48.117188 58.09375 48.128906 58.082031 C 48.152344 58.054688 48.183594 58.027344 48.21875 57.992188 C 48.25 57.957031 48.289062 57.921875 48.324219 57.890625 C 48.363281 57.859375 48.402344 57.832031 48.441406 57.8125 C 48.476562 57.789062 48.511719 57.777344 48.542969 57.777344 C 48.578125 57.777344 48.609375 57.789062 48.628906 57.8125 C 48.652344 57.835938 48.671875 57.859375 48.6875 57.886719 C 48.6875 57.890625 48.679688 57.890625 48.671875 57.898438 C 48.660156 57.902344 48.648438 57.914062 48.628906 57.9375 C 48.609375 57.960938 48.589844 57.992188 48.566406 58.035156 C 48.542969 58.074219 48.519531 58.121094 48.496094 58.167969 C 48.476562 58.21875 48.457031 58.265625 48.445312 58.316406 C 48.429688 58.367188 48.421875 58.414062 48.421875 58.453125 C 48.421875 58.488281 48.425781 58.507812 48.433594 58.515625 C 48.441406 58.527344 48.457031 58.53125 48.472656 58.53125 C 48.484375 58.53125 48.5 58.527344 48.515625 58.519531 C 48.53125 58.515625 48.546875 58.511719 48.554688 58.511719 C 48.558594 58.515625 48.5625 58.519531 48.566406 58.527344 C 48.570312 58.535156 48.574219 58.542969 48.574219 58.550781 C 48.5625 58.558594 48.550781 58.570312 48.535156 58.578125 C 48.519531 58.589844 48.503906 58.597656 48.488281 58.605469 C 48.472656 58.613281 48.457031 58.621094 48.441406 58.625 C 48.425781 58.628906 48.414062 58.632812 48.402344 58.632812 C 48.363281 58.632812 48.332031 58.625 48.308594 58.617188 C 48.28125 58.605469 48.265625 58.589844 48.25 58.570312 C 48.234375 58.550781 48.226562 58.53125 48.222656 58.503906 C 48.214844 58.480469 48.214844 58.453125 48.214844 58.421875 C 48.214844 58.40625 48.214844 58.386719 48.21875 58.367188 C 48.21875 58.347656 48.226562 58.324219 48.234375 58.296875 C 48.242188 58.269531 48.253906 58.238281 48.265625 58.199219 C 48.28125 58.164062 48.300781 58.117188 48.324219 58.066406 C 48.320312 58.066406 48.300781 58.074219 48.269531 58.09375 C 48.234375 58.109375 48.199219 58.140625 48.160156 58.179688 C 48.097656 58.238281 48.042969 58.296875 47.992188 58.355469 C 47.945312 58.414062 47.894531 58.476562 47.84375 58.550781 C 47.8125 58.589844 47.789062 58.625 47.765625 58.652344 C 47.742188 58.683594 47.726562 58.699219 47.710938 58.710938 C 47.679688 58.695312 47.660156 58.671875 47.648438 58.644531 C 47.632812 58.613281 47.625 58.585938 47.617188 58.554688 C 47.617188 58.53125 47.621094 58.5 47.628906 58.460938 C 47.636719 58.421875 47.644531 58.378906 47.660156 58.332031 C 47.671875 58.285156 47.6875 58.234375 47.707031 58.183594 C 47.722656 58.132812 47.746094 58.082031 47.765625 58.027344 C 47.816406 57.914062 47.863281 57.820312 47.90625 57.753906 C 47.945312 57.6875 47.972656 57.652344 47.984375 57.648438 Z M 49.417969 57.808594 C 49.429688 57.808594 49.445312 57.8125 49.464844 57.816406 C 49.480469 57.820312 49.5 57.828125 49.511719 57.832031 C 49.527344 57.839844 49.539062 57.847656 49.550781 57.855469 C 49.558594 57.863281 49.5625 57.871094 49.5625 57.878906 C 49.539062 57.933594 49.511719 57.988281 49.492188 58.046875 C 49.46875 58.101562 49.449219 58.15625 49.433594 58.207031 C 49.417969 58.257812 49.40625 58.308594 49.398438 58.351562 C 49.386719 58.398438 49.382812 58.4375 49.382812 58.46875 C 49.382812 58.507812 49.386719 58.539062 49.394531 58.5625 C 49.402344 58.585938 49.417969 58.605469 49.433594 58.613281 C 49.417969 58.625 49.398438 58.632812 49.375 58.640625 C 49.347656 58.648438 49.328125 58.648438 49.304688 58.648438 C 49.234375 58.648438 49.199219 58.601562 49.199219 58.503906 C 49.199219 58.429688 49.222656 58.324219 49.273438 58.195312 C 49.25 58.253906 49.21875 58.3125 49.183594 58.367188 C 49.148438 58.417969 49.113281 58.464844 49.078125 58.507812 C 49.042969 58.546875 49.007812 58.582031 48.96875 58.609375 C 48.933594 58.632812 48.898438 58.648438 48.871094 58.652344 C 48.820312 58.652344 48.78125 58.628906 48.75 58.582031 C 48.71875 58.539062 48.703125 58.484375 48.703125 58.414062 C 48.703125 58.339844 48.722656 58.261719 48.753906 58.179688 C 48.785156 58.097656 48.824219 58.023438 48.875 57.953125 C 48.925781 57.882812 48.976562 57.824219 49.035156 57.777344 C 49.09375 57.730469 49.152344 57.703125 49.207031 57.703125 C 49.21875 57.707031 49.234375 57.714844 49.25 57.726562 C 49.265625 57.738281 49.28125 57.75 49.296875 57.765625 C 49.3125 57.78125 49.324219 57.800781 49.335938 57.816406 C 49.347656 57.832031 49.351562 57.847656 49.355469 57.859375 C 49.300781 57.867188 49.246094 57.890625 49.191406 57.9375 C 49.132812 57.980469 49.082031 58.03125 49.039062 58.09375 C 48.992188 58.15625 48.953125 58.222656 48.925781 58.292969 C 48.894531 58.359375 48.882812 58.425781 48.882812 58.488281 C 48.882812 58.511719 48.890625 58.527344 48.910156 58.535156 C 48.949219 58.527344 48.992188 58.496094 49.042969 58.4375 C 49.09375 58.378906 49.152344 58.289062 49.226562 58.171875 C 49.238281 58.144531 49.253906 58.121094 49.269531 58.089844 C 49.285156 58.0625 49.304688 58.03125 49.320312 58 C 49.335938 57.96875 49.355469 57.9375 49.371094 57.902344 C 49.386719 57.871094 49.402344 57.839844 49.417969 57.808594 Z M 49.617188 58.570312 C 49.625 58.53125 49.636719 58.480469 49.652344 58.417969 C 49.667969 58.355469 49.6875 58.289062 49.710938 58.21875 C 49.734375 58.148438 49.757812 58.078125 49.78125 58.003906 C 49.808594 57.933594 49.832031 57.871094 49.855469 57.8125 C 49.875 57.773438 49.886719 57.738281 49.902344 57.714844 C 49.914062 57.691406 49.929688 57.675781 49.945312 57.65625 C 49.964844 57.660156 49.984375 57.664062 50.003906 57.671875 C 50.023438 57.679688 50.042969 57.6875 50.058594 57.695312 C 50.078125 57.703125 50.09375 57.714844 50.109375 57.722656 C 50.125 57.734375 50.136719 57.742188 50.144531 57.753906 C 50.109375 57.796875 50.078125 57.84375 50.050781 57.898438 C 50.023438 57.953125 49.996094 58.023438 49.96875 58.105469 C 50.039062 58.042969 50.101562 57.980469 50.15625 57.925781 C 50.210938 57.867188 50.261719 57.800781 50.3125 57.730469 C 50.320312 57.722656 50.332031 57.71875 50.351562 57.71875 C 50.371094 57.71875 50.386719 57.722656 50.40625 57.726562 C 50.421875 57.734375 50.433594 57.742188 50.441406 57.753906 C 50.417969 57.816406 50.40625 57.878906 50.40625 57.941406 C 50.40625 58 50.414062 58.042969 50.433594 58.074219 C 50.429688 58.082031 50.421875 58.097656 50.40625 58.117188 C 50.386719 58.140625 50.371094 58.164062 50.351562 58.183594 C 50.316406 58.164062 50.28125 58.136719 50.253906 58.105469 C 50.226562 58.074219 50.207031 58.039062 50.195312 58 C 50.132812 58.042969 50.078125 58.085938 50.035156 58.128906 C 49.992188 58.167969 49.953125 58.214844 49.921875 58.265625 C 49.890625 58.316406 49.863281 58.375 49.84375 58.441406 C 49.820312 58.507812 49.800781 58.585938 49.78125 58.679688 C 49.769531 58.675781 49.753906 58.671875 49.738281 58.664062 C 49.722656 58.65625 49.703125 58.648438 49.6875 58.636719 C 49.671875 58.628906 49.65625 58.617188 49.644531 58.605469 C 49.628906 58.59375 49.621094 58.582031 49.617188 58.570312 Z M 51.210938 58.304688 C 51.179688 58.398438 51.152344 58.488281 51.121094 58.566406 C 51.089844 58.644531 51.058594 58.71875 51.023438 58.785156 C 50.988281 58.851562 50.953125 58.914062 50.910156 58.972656 C 50.871094 59.027344 50.828125 59.082031 50.78125 59.128906 C 50.71875 59.195312 50.65625 59.242188 50.59375 59.277344 C 50.527344 59.308594 50.460938 59.328125 50.398438 59.328125 C 50.363281 59.328125 50.332031 59.324219 50.300781 59.316406 C 50.265625 59.308594 50.238281 59.300781 50.207031 59.285156 C 50.179688 59.273438 50.15625 59.257812 50.132812 59.242188 C 50.109375 59.226562 50.09375 59.207031 50.085938 59.191406 C 50.085938 59.175781 50.09375 59.160156 50.113281 59.148438 C 50.128906 59.164062 50.144531 59.175781 50.152344 59.183594 C 50.164062 59.191406 50.175781 59.195312 50.183594 59.203125 C 50.195312 59.207031 50.203125 59.210938 50.214844 59.210938 C 50.226562 59.214844 50.242188 59.214844 50.253906 59.214844 C 50.332031 59.214844 50.402344 59.191406 50.476562 59.148438 C 50.546875 59.101562 50.617188 59.039062 50.679688 58.960938 C 50.746094 58.878906 50.804688 58.777344 50.855469 58.664062 C 50.910156 58.546875 50.953125 58.417969 50.992188 58.273438 C 50.972656 58.300781 50.953125 58.335938 50.929688 58.371094 C 50.902344 58.410156 50.875 58.449219 50.84375 58.488281 C 50.8125 58.523438 50.78125 58.558594 50.75 58.589844 C 50.71875 58.621094 50.6875 58.640625 50.65625 58.648438 C 50.632812 58.648438 50.613281 58.644531 50.589844 58.636719 C 50.566406 58.628906 50.542969 58.621094 50.523438 58.605469 C 50.503906 58.59375 50.484375 58.578125 50.46875 58.558594 C 50.453125 58.539062 50.441406 58.519531 50.4375 58.496094 C 50.4375 58.457031 50.4375 58.425781 50.441406 58.402344 C 50.445312 58.378906 50.449219 58.355469 50.457031 58.328125 C 50.46875 58.277344 50.484375 58.21875 50.507812 58.15625 C 50.53125 58.09375 50.558594 58.03125 50.589844 57.96875 C 50.621094 57.90625 50.65625 57.847656 50.691406 57.796875 C 50.730469 57.742188 50.769531 57.699219 50.8125 57.671875 C 50.820312 57.671875 50.835938 57.671875 50.851562 57.671875 C 50.867188 57.675781 50.882812 57.679688 50.898438 57.683594 C 50.917969 57.6875 50.933594 57.695312 50.949219 57.703125 C 50.964844 57.710938 50.980469 57.71875 50.992188 57.730469 C 50.976562 57.746094 50.945312 57.789062 50.894531 57.863281 C 50.847656 57.941406 50.792969 58.046875 50.734375 58.191406 C 50.726562 58.203125 50.71875 58.226562 50.710938 58.253906 C 50.699219 58.28125 50.691406 58.308594 50.683594 58.339844 C 50.675781 58.371094 50.667969 58.402344 50.660156 58.429688 C 50.652344 58.460938 50.648438 58.480469 50.648438 58.5 C 50.648438 58.511719 50.652344 58.519531 50.65625 58.523438 C 50.65625 58.527344 50.660156 58.53125 50.664062 58.535156 C 50.6875 58.53125 50.71875 58.511719 50.757812 58.476562 C 50.796875 58.441406 50.84375 58.386719 50.894531 58.3125 C 50.925781 58.265625 50.953125 58.21875 50.980469 58.171875 C 51.007812 58.125 51.035156 58.078125 51.058594 58.027344 C 51.085938 57.980469 51.113281 57.933594 51.140625 57.882812 C 51.167969 57.832031 51.199219 57.78125 51.230469 57.726562 C 51.246094 57.726562 51.265625 57.730469 51.285156 57.734375 C 51.304688 57.738281 51.324219 57.742188 51.34375 57.75 C 51.359375 57.753906 51.378906 57.761719 51.390625 57.769531 C 51.40625 57.773438 51.414062 57.78125 51.421875 57.789062 C 51.382812 57.878906 51.34375 57.964844 51.308594 58.046875 C 51.269531 58.128906 51.238281 58.214844 51.210938 58.304688 Z M 53.265625 57.515625 C 53.265625 57.582031 53.25 57.640625 53.222656 57.695312 C 53.195312 57.753906 53.15625 57.804688 53.105469 57.847656 C 53.054688 57.890625 52.996094 57.929688 52.929688 57.960938 C 52.859375 57.988281 52.785156 58.011719 52.707031 58.019531 C 52.726562 58.082031 52.75 58.140625 52.78125 58.203125 C 52.808594 58.265625 52.839844 58.328125 52.871094 58.386719 C 52.90625 58.445312 52.941406 58.5 52.976562 58.546875 C 53.011719 58.597656 53.046875 58.636719 53.082031 58.667969 C 53.074219 58.679688 53.066406 58.695312 53.050781 58.707031 C 53.039062 58.722656 53.023438 58.734375 53.007812 58.746094 C 52.992188 58.757812 52.972656 58.765625 52.957031 58.773438 C 52.9375 58.78125 52.921875 58.785156 52.90625 58.785156 C 52.875 58.785156 52.847656 58.769531 52.824219 58.742188 C 52.796875 58.714844 52.769531 58.667969 52.742188 58.609375 C 52.714844 58.550781 52.6875 58.472656 52.65625 58.375 C 52.628906 58.28125 52.59375 58.164062 52.558594 58.027344 C 52.542969 58.027344 52.53125 58.027344 52.515625 58.027344 C 52.5 58.027344 52.488281 58.027344 52.480469 58.023438 C 52.472656 58.019531 52.460938 58.011719 52.453125 57.996094 C 52.414062 58.074219 52.382812 58.144531 52.355469 58.214844 C 52.328125 58.28125 52.304688 58.347656 52.28125 58.410156 C 52.261719 58.472656 52.242188 58.53125 52.222656 58.589844 C 52.207031 58.652344 52.195312 58.710938 52.183594 58.769531 C 52.136719 58.761719 52.097656 58.742188 52.066406 58.714844 C 52.03125 58.6875 52 58.648438 51.972656 58.597656 C 51.976562 58.585938 51.980469 58.574219 51.988281 58.5625 C 51.996094 58.550781 52 58.535156 52.011719 58.515625 C 52.019531 58.492188 52.03125 58.46875 52.046875 58.4375 C 52.058594 58.402344 52.078125 58.363281 52.101562 58.308594 C 52.125 58.257812 52.152344 58.191406 52.183594 58.113281 C 52.21875 58.039062 52.257812 57.945312 52.300781 57.835938 C 52.324219 57.785156 52.34375 57.742188 52.359375 57.707031 C 52.371094 57.667969 52.386719 57.632812 52.398438 57.597656 C 52.410156 57.566406 52.421875 57.53125 52.429688 57.5 C 52.441406 57.464844 52.449219 57.425781 52.460938 57.382812 C 52.402344 57.402344 52.34375 57.425781 52.292969 57.453125 C 52.238281 57.476562 52.195312 57.507812 52.160156 57.535156 C 52.148438 57.527344 52.136719 57.515625 52.125 57.5 C 52.113281 57.484375 52.101562 57.464844 52.089844 57.445312 C 52.078125 57.425781 52.070312 57.40625 52.0625 57.386719 C 52.054688 57.367188 52.050781 57.351562 52.046875 57.335938 C 52.089844 57.308594 52.136719 57.285156 52.195312 57.261719 C 52.253906 57.238281 52.3125 57.21875 52.378906 57.203125 C 52.441406 57.1875 52.507812 57.171875 52.578125 57.164062 C 52.644531 57.15625 52.707031 57.148438 52.765625 57.148438 C 52.925781 57.148438 53.046875 57.183594 53.132812 57.246094 C 53.222656 57.3125 53.265625 57.402344 53.265625 57.515625 Z M 52.757812 57.3125 L 52.78125 57.351562 C 52.773438 57.363281 52.757812 57.386719 52.738281 57.421875 C 52.71875 57.457031 52.695312 57.5 52.667969 57.550781 C 52.644531 57.597656 52.617188 57.652344 52.585938 57.710938 C 52.558594 57.769531 52.53125 57.828125 52.503906 57.882812 C 52.605469 57.882812 52.695312 57.875 52.777344 57.855469 C 52.863281 57.839844 52.933594 57.8125 52.996094 57.777344 C 53.054688 57.746094 53.105469 57.703125 53.136719 57.660156 C 53.171875 57.613281 53.1875 57.5625 53.1875 57.507812 C 53.1875 57.441406 53.164062 57.390625 53.117188 57.355469 C 53.070312 57.320312 52.996094 57.304688 52.894531 57.304688 C 52.875 57.304688 52.851562 57.304688 52.828125 57.304688 C 52.804688 57.308594 52.78125 57.308594 52.757812 57.3125 Z M 53.90625 57.789062 C 53.902344 57.871094 53.886719 57.941406 53.863281 58 C 53.839844 58.058594 53.804688 58.109375 53.761719 58.15625 C 53.714844 58.199219 53.664062 58.238281 53.597656 58.273438 C 53.535156 58.3125 53.460938 58.34375 53.375 58.378906 C 53.375 58.386719 53.375 58.394531 53.375 58.402344 C 53.375 58.410156 53.375 58.421875 53.375 58.429688 C 53.375 58.445312 53.375 58.464844 53.378906 58.484375 C 53.382812 58.503906 53.386719 58.519531 53.390625 58.535156 C 53.398438 58.550781 53.40625 58.5625 53.421875 58.574219 C 53.433594 58.582031 53.445312 58.589844 53.464844 58.589844 C 53.5 58.589844 53.535156 58.582031 53.570312 58.566406 C 53.605469 58.550781 53.636719 58.53125 53.667969 58.507812 C 53.699219 58.484375 53.730469 58.457031 53.757812 58.429688 C 53.785156 58.402344 53.808594 58.378906 53.828125 58.355469 C 53.84375 58.367188 53.851562 58.378906 53.863281 58.390625 C 53.804688 58.46875 53.738281 58.535156 53.667969 58.585938 C 53.597656 58.640625 53.527344 58.671875 53.464844 58.6875 C 53.375 58.675781 53.304688 58.644531 53.253906 58.585938 C 53.203125 58.53125 53.175781 58.464844 53.175781 58.382812 C 53.175781 58.332031 53.183594 58.273438 53.199219 58.21875 C 53.214844 58.164062 53.234375 58.109375 53.261719 58.054688 C 53.289062 58.003906 53.320312 57.953125 53.359375 57.90625 C 53.394531 57.863281 53.433594 57.820312 53.472656 57.785156 C 53.515625 57.753906 53.558594 57.726562 53.601562 57.707031 C 53.648438 57.6875 53.691406 57.675781 53.734375 57.675781 C 53.796875 57.683594 53.851562 57.722656 53.90625 57.789062 Z M 53.769531 57.855469 C 53.734375 57.859375 53.695312 57.875 53.65625 57.898438 C 53.621094 57.921875 53.582031 57.953125 53.550781 57.992188 C 53.515625 58.03125 53.484375 58.078125 53.457031 58.132812 C 53.429688 58.183594 53.40625 58.242188 53.390625 58.304688 C 53.5 58.25 53.585938 58.183594 53.65625 58.105469 C 53.726562 58.03125 53.765625 57.945312 53.769531 57.855469 Z M 54.683594 57.820312 C 54.679688 57.847656 54.675781 57.871094 54.667969 57.898438 C 54.660156 57.925781 54.652344 57.949219 54.640625 57.972656 C 54.632812 57.996094 54.621094 58.011719 54.609375 58.027344 C 54.597656 58.042969 54.585938 58.050781 54.574219 58.050781 C 54.558594 58.046875 54.550781 58.039062 54.550781 58.019531 C 54.550781 58.015625 54.550781 58.007812 54.554688 58 C 54.558594 57.992188 54.5625 57.980469 54.566406 57.972656 C 54.570312 57.960938 54.574219 57.949219 54.574219 57.941406 C 54.578125 57.929688 54.582031 57.921875 54.582031 57.910156 C 54.582031 57.894531 54.578125 57.878906 54.566406 57.863281 C 54.558594 57.851562 54.546875 57.847656 54.535156 57.847656 C 54.480469 57.847656 54.441406 57.878906 54.414062 57.945312 C 54.382812 58.011719 54.371094 58.109375 54.371094 58.238281 C 54.371094 58.25 54.371094 58.257812 54.371094 58.261719 C 54.402344 58.261719 54.425781 58.257812 54.445312 58.257812 C 54.46875 58.257812 54.492188 58.257812 54.511719 58.257812 C 54.511719 58.261719 54.511719 58.265625 54.511719 58.273438 C 54.511719 58.285156 54.511719 58.292969 54.503906 58.300781 C 54.476562 58.304688 54.449219 58.3125 54.433594 58.316406 C 54.414062 58.320312 54.402344 58.324219 54.390625 58.328125 C 54.382812 58.332031 54.378906 58.335938 54.375 58.339844 C 54.375 58.347656 54.371094 58.351562 54.371094 58.359375 C 54.371094 58.371094 54.371094 58.382812 54.375 58.390625 C 54.375 58.402344 54.375 58.417969 54.375 58.433594 C 54.375 58.542969 54.34375 58.632812 54.285156 58.699219 C 54.222656 58.765625 54.140625 58.804688 54.035156 58.816406 C 54.015625 58.816406 53.996094 58.808594 53.976562 58.800781 C 53.957031 58.792969 53.9375 58.78125 53.917969 58.765625 C 53.902344 58.75 53.886719 58.734375 53.871094 58.71875 C 53.859375 58.699219 53.851562 58.679688 53.84375 58.664062 C 53.84375 58.613281 53.855469 58.5625 53.875 58.519531 C 53.898438 58.472656 53.925781 58.433594 53.960938 58.398438 C 54 58.363281 54.042969 58.332031 54.089844 58.3125 C 54.140625 58.289062 54.195312 58.277344 54.253906 58.273438 C 54.253906 58.238281 54.25 58.207031 54.242188 58.175781 C 54.238281 58.144531 54.230469 58.113281 54.222656 58.082031 C 54.214844 58.054688 54.207031 58.023438 54.203125 57.996094 C 54.195312 57.96875 54.191406 57.941406 54.191406 57.910156 C 54.191406 57.875 54.199219 57.839844 54.214844 57.804688 C 54.226562 57.769531 54.246094 57.738281 54.269531 57.707031 C 54.296875 57.679688 54.324219 57.652344 54.355469 57.632812 C 54.386719 57.609375 54.417969 57.597656 54.453125 57.589844 C 54.46875 57.59375 54.488281 57.605469 54.511719 57.625 C 54.535156 57.640625 54.5625 57.664062 54.585938 57.6875 C 54.609375 57.710938 54.628906 57.734375 54.648438 57.761719 C 54.667969 57.785156 54.679688 57.804688 54.683594 57.820312 Z M 54.027344 58.726562 C 54.058594 58.710938 54.089844 58.691406 54.117188 58.667969 C 54.144531 58.644531 54.171875 58.613281 54.191406 58.582031 C 54.214844 58.550781 54.230469 58.515625 54.242188 58.480469 C 54.253906 58.445312 54.261719 58.410156 54.261719 58.375 C 54.234375 58.378906 54.207031 58.394531 54.175781 58.414062 C 54.140625 58.433594 54.113281 58.457031 54.085938 58.488281 C 54.058594 58.515625 54.035156 58.542969 54.015625 58.574219 C 53.996094 58.605469 53.988281 58.632812 53.988281 58.652344 C 53.988281 58.683594 54 58.707031 54.027344 58.726562 Z M 54.914062 57.851562 L 54.800781 57.851562 C 54.792969 57.84375 54.789062 57.824219 54.785156 57.800781 C 54.777344 57.773438 54.773438 57.753906 54.773438 57.734375 C 54.808594 57.734375 54.84375 57.738281 54.875 57.738281 C 54.90625 57.742188 54.9375 57.742188 54.960938 57.746094 C 54.980469 57.707031 55.003906 57.667969 55.027344 57.628906 C 55.050781 57.589844 55.070312 57.550781 55.09375 57.519531 C 55.117188 57.488281 55.136719 57.460938 55.15625 57.4375 C 55.175781 57.414062 55.1875 57.402344 55.199219 57.394531 C 55.214844 57.394531 55.230469 57.394531 55.25 57.402344 C 55.269531 57.40625 55.292969 57.410156 55.3125 57.417969 C 55.335938 57.425781 55.351562 57.433594 55.371094 57.441406 C 55.386719 57.449219 55.398438 57.457031 55.40625 57.464844 C 55.367188 57.515625 55.332031 57.5625 55.304688 57.605469 C 55.277344 57.648438 55.246094 57.699219 55.210938 57.753906 C 55.238281 57.753906 55.265625 57.753906 55.292969 57.75 C 55.320312 57.75 55.347656 57.746094 55.375 57.746094 C 55.382812 57.753906 55.386719 57.761719 55.390625 57.769531 C 55.394531 57.78125 55.398438 57.789062 55.398438 57.800781 C 55.332031 57.824219 55.253906 57.839844 55.160156 57.839844 C 55.128906 57.902344 55.097656 57.96875 55.070312 58.03125 C 55.046875 58.09375 55.023438 58.152344 55.007812 58.210938 C 54.988281 58.269531 54.976562 58.324219 54.964844 58.375 C 54.953125 58.429688 54.949219 58.472656 54.949219 58.515625 C 54.949219 58.574219 54.972656 58.605469 55.015625 58.613281 C 55.054688 58.605469 55.09375 58.597656 55.128906 58.582031 C 55.164062 58.566406 55.195312 58.550781 55.222656 58.527344 C 55.230469 58.539062 55.238281 58.550781 55.238281 58.558594 C 55.230469 58.570312 55.214844 58.582031 55.195312 58.597656 C 55.179688 58.613281 55.15625 58.628906 55.132812 58.644531 C 55.113281 58.660156 55.089844 58.671875 55.070312 58.683594 C 55.046875 58.695312 55.03125 58.699219 55.023438 58.703125 C 54.988281 58.699219 54.957031 58.691406 54.921875 58.679688 C 54.890625 58.667969 54.859375 58.648438 54.832031 58.628906 C 54.804688 58.609375 54.78125 58.589844 54.765625 58.5625 C 54.746094 58.539062 54.738281 58.515625 54.738281 58.492188 C 54.738281 58.460938 54.742188 58.417969 54.753906 58.371094 C 54.761719 58.324219 54.773438 58.269531 54.789062 58.214844 C 54.804688 58.15625 54.824219 58.097656 54.84375 58.035156 C 54.867188 57.972656 54.890625 57.910156 54.914062 57.851562 Z M 56.066406 57.808594 C 56.082031 57.808594 56.097656 57.8125 56.113281 57.816406 C 56.132812 57.820312 56.148438 57.828125 56.164062 57.832031 C 56.175781 57.839844 56.1875 57.847656 56.199219 57.855469 C 56.210938 57.863281 56.214844 57.871094 56.214844 57.878906 C 56.1875 57.933594 56.164062 57.988281 56.140625 58.046875 C 56.117188 58.101562 56.097656 58.15625 56.082031 58.207031 C 56.066406 58.257812 56.054688 58.308594 56.046875 58.351562 C 56.039062 58.398438 56.035156 58.4375 56.035156 58.46875 C 56.035156 58.507812 56.039062 58.539062 56.046875 58.5625 C 56.054688 58.585938 56.066406 58.605469 56.085938 58.613281 C 56.070312 58.625 56.046875 58.632812 56.023438 58.640625 C 56 58.648438 55.976562 58.648438 55.957031 58.648438 C 55.882812 58.648438 55.847656 58.601562 55.847656 58.503906 C 55.847656 58.429688 55.875 58.324219 55.925781 58.195312 C 55.898438 58.253906 55.867188 58.3125 55.832031 58.367188 C 55.796875 58.417969 55.761719 58.464844 55.726562 58.507812 C 55.691406 58.546875 55.65625 58.582031 55.621094 58.609375 C 55.582031 58.632812 55.550781 58.648438 55.519531 58.652344 C 55.46875 58.652344 55.429688 58.628906 55.398438 58.582031 C 55.371094 58.539062 55.355469 58.484375 55.355469 58.414062 C 55.355469 58.339844 55.371094 58.261719 55.402344 58.179688 C 55.433594 58.097656 55.476562 58.023438 55.523438 57.953125 C 55.574219 57.882812 55.628906 57.824219 55.6875 57.777344 C 55.746094 57.730469 55.800781 57.703125 55.855469 57.703125 C 55.867188 57.707031 55.882812 57.714844 55.898438 57.726562 C 55.914062 57.738281 55.933594 57.75 55.945312 57.765625 C 55.960938 57.78125 55.976562 57.800781 55.984375 57.816406 C 55.996094 57.832031 56.003906 57.847656 56.003906 57.859375 C 55.949219 57.867188 55.894531 57.890625 55.839844 57.9375 C 55.785156 57.980469 55.734375 58.03125 55.6875 58.09375 C 55.640625 58.15625 55.605469 58.222656 55.574219 58.292969 C 55.546875 58.359375 55.53125 58.425781 55.53125 58.488281 C 55.53125 58.511719 55.539062 58.527344 55.558594 58.535156 C 55.597656 58.527344 55.640625 58.496094 55.691406 58.4375 C 55.742188 58.378906 55.804688 58.289062 55.875 58.171875 C 55.886719 58.144531 55.902344 58.121094 55.917969 58.089844 C 55.9375 58.0625 55.953125 58.03125 55.96875 58 C 55.988281 57.96875 56.003906 57.9375 56.019531 57.902344 C 56.035156 57.871094 56.050781 57.839844 56.066406 57.808594 Z M 56.847656 58.566406 C 56.820312 58.546875 56.804688 58.519531 56.796875 58.488281 C 56.789062 58.457031 56.785156 58.429688 56.785156 58.40625 C 56.785156 58.378906 56.785156 58.355469 56.792969 58.335938 C 56.789062 58.335938 56.777344 58.34375 56.757812 58.367188 C 56.738281 58.386719 56.71875 58.414062 56.699219 58.441406 C 56.675781 58.472656 56.652344 58.5 56.632812 58.527344 C 56.613281 58.554688 56.59375 58.574219 56.585938 58.589844 C 56.566406 58.605469 56.550781 58.621094 56.535156 58.632812 C 56.519531 58.644531 56.507812 58.648438 56.5 58.648438 C 56.480469 58.648438 56.457031 58.644531 56.433594 58.636719 C 56.410156 58.628906 56.386719 58.621094 56.367188 58.605469 C 56.347656 58.59375 56.328125 58.578125 56.3125 58.558594 C 56.300781 58.539062 56.289062 58.519531 56.285156 58.496094 C 56.285156 58.457031 56.285156 58.429688 56.285156 58.402344 C 56.289062 58.378906 56.292969 58.355469 56.300781 58.328125 C 56.3125 58.277344 56.328125 58.21875 56.351562 58.15625 C 56.375 58.09375 56.402344 58.03125 56.433594 57.96875 C 56.460938 57.90625 56.496094 57.847656 56.535156 57.796875 C 56.570312 57.742188 56.613281 57.699219 56.65625 57.671875 C 56.667969 57.671875 56.679688 57.671875 56.695312 57.671875 C 56.710938 57.675781 56.726562 57.679688 56.746094 57.683594 C 56.761719 57.6875 56.777344 57.695312 56.792969 57.703125 C 56.808594 57.710938 56.820312 57.71875 56.832031 57.730469 C 56.820312 57.746094 56.789062 57.789062 56.742188 57.863281 C 56.691406 57.941406 56.636719 58.046875 56.578125 58.191406 C 56.574219 58.203125 56.566406 58.226562 56.554688 58.253906 C 56.546875 58.28125 56.535156 58.308594 56.527344 58.339844 C 56.519531 58.371094 56.511719 58.402344 56.503906 58.429688 C 56.5 58.460938 56.496094 58.480469 56.496094 58.5 C 56.496094 58.511719 56.496094 58.519531 56.5 58.523438 C 56.503906 58.527344 56.507812 58.53125 56.507812 58.535156 C 56.53125 58.527344 56.554688 58.503906 56.585938 58.46875 C 56.617188 58.433594 56.65625 58.378906 56.710938 58.304688 C 56.726562 58.285156 56.742188 58.265625 56.757812 58.242188 C 56.777344 58.21875 56.792969 58.191406 56.8125 58.164062 C 56.832031 58.136719 56.847656 58.109375 56.867188 58.082031 C 56.882812 58.050781 56.894531 58.023438 56.90625 57.992188 C 56.910156 57.976562 56.917969 57.957031 56.925781 57.9375 C 56.9375 57.914062 56.945312 57.890625 56.960938 57.867188 C 56.972656 57.84375 56.988281 57.820312 57.003906 57.796875 C 57.019531 57.769531 57.039062 57.75 57.0625 57.726562 C 57.078125 57.726562 57.097656 57.730469 57.117188 57.734375 C 57.136719 57.738281 57.15625 57.742188 57.171875 57.75 C 57.191406 57.753906 57.207031 57.761719 57.21875 57.769531 C 57.234375 57.773438 57.242188 57.78125 57.25 57.789062 C 57.226562 57.847656 57.199219 57.90625 57.171875 57.964844 C 57.140625 58.019531 57.113281 58.078125 57.089844 58.132812 C 57.0625 58.1875 57.042969 58.242188 57.027344 58.296875 C 57.007812 58.347656 57 58.402344 57 58.453125 C 57 58.480469 57.003906 58.503906 57.007812 58.527344 C 57.011719 58.546875 57.015625 58.5625 57.023438 58.578125 C 57.027344 58.589844 57.03125 58.601562 57.035156 58.613281 C 57.042969 58.621094 57.042969 58.628906 57.042969 58.636719 C 57.042969 58.636719 57.042969 58.640625 57.039062 58.640625 C 57.039062 58.644531 57.035156 58.644531 57.035156 58.644531 C 57.027344 58.644531 57.015625 58.640625 57 58.636719 C 56.984375 58.632812 56.96875 58.628906 56.953125 58.621094 C 56.933594 58.613281 56.914062 58.605469 56.898438 58.597656 C 56.878906 58.585938 56.863281 58.578125 56.847656 58.566406 Z M 57.238281 58.570312 C 57.246094 58.53125 57.257812 58.480469 57.273438 58.417969 C 57.292969 58.355469 57.3125 58.289062 57.332031 58.21875 C 57.355469 58.148438 57.378906 58.078125 57.40625 58.003906 C 57.429688 57.933594 57.453125 57.871094 57.476562 57.8125 C 57.496094 57.773438 57.511719 57.738281 57.523438 57.714844 C 57.535156 57.691406 57.550781 57.675781 57.566406 57.65625 C 57.585938 57.660156 57.605469 57.664062 57.625 57.671875 C 57.644531 57.679688 57.664062 57.6875 57.683594 57.695312 C 57.699219 57.703125 57.71875 57.714844 57.730469 57.722656 C 57.746094 57.734375 57.757812 57.742188 57.765625 57.753906 C 57.730469 57.796875 57.699219 57.84375 57.671875 57.898438 C 57.644531 57.953125 57.617188 58.023438 57.589844 58.105469 C 57.660156 58.042969 57.722656 57.980469 57.777344 57.925781 C 57.832031 57.867188 57.886719 57.800781 57.933594 57.730469 C 57.941406 57.722656 57.953125 57.71875 57.972656 57.71875 C 57.992188 57.71875 58.011719 57.722656 58.027344 57.726562 C 58.046875 57.734375 58.058594 57.742188 58.0625 57.753906 C 58.039062 57.816406 58.027344 57.878906 58.027344 57.941406 C 58.027344 58 58.035156 58.042969 58.054688 58.074219 C 58.050781 58.082031 58.042969 58.097656 58.027344 58.117188 C 58.011719 58.140625 57.992188 58.164062 57.972656 58.183594 C 57.9375 58.164062 57.90625 58.136719 57.878906 58.105469 C 57.847656 58.074219 57.828125 58.039062 57.816406 58 C 57.753906 58.042969 57.699219 58.085938 57.65625 58.128906 C 57.613281 58.167969 57.574219 58.214844 57.542969 58.265625 C 57.511719 58.316406 57.488281 58.375 57.464844 58.441406 C 57.441406 58.507812 57.421875 58.585938 57.402344 58.679688 C 57.390625 58.675781 57.375 58.671875 57.359375 58.664062 C 57.34375 58.65625 57.328125 58.648438 57.308594 58.636719 C 57.292969 58.628906 57.277344 58.617188 57.265625 58.605469 C 57.253906 58.59375 57.242188 58.582031 57.238281 58.570312 Z M 58.773438 57.808594 C 58.785156 57.808594 58.800781 57.8125 58.820312 57.816406 C 58.835938 57.820312 58.851562 57.828125 58.867188 57.832031 C 58.882812 57.839844 58.894531 57.847656 58.902344 57.855469 C 58.914062 57.863281 58.917969 57.871094 58.917969 57.878906 C 58.890625 57.933594 58.867188 57.988281 58.84375 58.046875 C 58.824219 58.101562 58.804688 58.15625 58.789062 58.207031 C 58.773438 58.257812 58.757812 58.308594 58.75 58.351562 C 58.742188 58.398438 58.738281 58.4375 58.738281 58.46875 C 58.738281 58.507812 58.742188 58.539062 58.75 58.5625 C 58.757812 58.585938 58.769531 58.605469 58.789062 58.613281 C 58.773438 58.625 58.753906 58.632812 58.726562 58.640625 C 58.703125 58.648438 58.679688 58.648438 58.660156 58.648438 C 58.589844 58.648438 58.554688 58.601562 58.554688 58.503906 C 58.554688 58.429688 58.578125 58.324219 58.628906 58.195312 C 58.601562 58.253906 58.570312 58.3125 58.539062 58.367188 C 58.503906 58.417969 58.46875 58.464844 58.433594 58.507812 C 58.398438 58.546875 58.359375 58.582031 58.324219 58.609375 C 58.289062 58.632812 58.253906 58.648438 58.222656 58.652344 C 58.175781 58.652344 58.136719 58.628906 58.105469 58.582031 C 58.074219 58.539062 58.058594 58.484375 58.058594 58.414062 C 58.058594 58.339844 58.074219 58.261719 58.105469 58.179688 C 58.140625 58.097656 58.179688 58.023438 58.230469 57.953125 C 58.277344 57.882812 58.332031 57.824219 58.390625 57.777344 C 58.449219 57.730469 58.503906 57.703125 58.558594 57.703125 C 58.574219 57.707031 58.585938 57.714844 58.605469 57.726562 C 58.621094 57.738281 58.636719 57.75 58.652344 57.765625 C 58.667969 57.78125 58.679688 57.800781 58.691406 57.816406 C 58.699219 57.832031 58.707031 57.847656 58.707031 57.859375 C 58.65625 57.867188 58.601562 57.890625 58.542969 57.9375 C 58.488281 57.980469 58.4375 58.03125 58.390625 58.09375 C 58.347656 58.15625 58.308594 58.222656 58.28125 58.292969 C 58.25 58.359375 58.234375 58.425781 58.234375 58.488281 C 58.234375 58.511719 58.246094 58.527344 58.265625 58.535156 C 58.300781 58.527344 58.347656 58.496094 58.398438 58.4375 C 58.445312 58.378906 58.507812 58.289062 58.578125 58.171875 C 58.59375 58.144531 58.609375 58.121094 58.625 58.089844 C 58.640625 58.0625 58.65625 58.03125 58.675781 58 C 58.691406 57.96875 58.707031 57.9375 58.726562 57.902344 C 58.742188 57.871094 58.757812 57.839844 58.773438 57.808594 Z M 59.339844 57.648438 C 59.375 57.660156 59.40625 57.683594 59.4375 57.71875 C 59.46875 57.753906 59.492188 57.796875 59.507812 57.839844 C 59.492188 57.875 59.46875 57.917969 59.4375 57.96875 C 59.40625 58.019531 59.378906 58.070312 59.347656 58.121094 C 59.316406 58.171875 59.289062 58.222656 59.265625 58.269531 C 59.242188 58.316406 59.226562 58.355469 59.222656 58.386719 C 59.242188 58.363281 59.265625 58.335938 59.292969 58.308594 C 59.320312 58.277344 59.34375 58.25 59.367188 58.21875 C 59.394531 58.1875 59.414062 58.160156 59.4375 58.136719 C 59.457031 58.113281 59.472656 58.09375 59.484375 58.082031 C 59.511719 58.054688 59.542969 58.027344 59.574219 57.992188 C 59.609375 57.957031 59.644531 57.921875 59.683594 57.890625 C 59.722656 57.859375 59.757812 57.832031 59.796875 57.8125 C 59.835938 57.789062 59.871094 57.777344 59.902344 57.777344 C 59.9375 57.777344 59.964844 57.789062 59.988281 57.8125 C 60.011719 57.835938 60.03125 57.859375 60.042969 57.886719 C 60.042969 57.890625 60.039062 57.890625 60.027344 57.898438 C 60.019531 57.902344 60.003906 57.914062 59.984375 57.9375 C 59.96875 57.960938 59.945312 57.992188 59.925781 58.035156 C 59.902344 58.074219 59.878906 58.121094 59.855469 58.167969 C 59.835938 58.21875 59.816406 58.265625 59.800781 58.316406 C 59.789062 58.367188 59.78125 58.414062 59.78125 58.453125 C 59.78125 58.488281 59.785156 58.507812 59.792969 58.515625 C 59.800781 58.527344 59.8125 58.53125 59.828125 58.53125 C 59.84375 58.53125 59.859375 58.527344 59.875 58.519531 C 59.890625 58.515625 59.902344 58.511719 59.914062 58.511719 C 59.917969 58.515625 59.921875 58.519531 59.925781 58.527344 C 59.929688 58.535156 59.929688 58.542969 59.929688 58.550781 C 59.921875 58.558594 59.90625 58.570312 59.894531 58.578125 C 59.878906 58.589844 59.863281 58.597656 59.847656 58.605469 C 59.832031 58.613281 59.816406 58.621094 59.800781 58.625 C 59.785156 58.628906 59.773438 58.632812 59.761719 58.632812 C 59.722656 58.632812 59.691406 58.625 59.664062 58.617188 C 59.640625 58.605469 59.621094 58.589844 59.609375 58.570312 C 59.59375 58.550781 59.585938 58.53125 59.578125 58.503906 C 59.574219 58.480469 59.570312 58.453125 59.570312 58.421875 C 59.570312 58.40625 59.574219 58.386719 59.574219 58.367188 C 59.578125 58.347656 59.582031 58.324219 59.589844 58.296875 C 59.597656 58.269531 59.609375 58.238281 59.625 58.199219 C 59.640625 58.164062 59.65625 58.117188 59.679688 58.066406 C 59.679688 58.066406 59.660156 58.074219 59.628906 58.09375 C 59.59375 58.109375 59.558594 58.140625 59.519531 58.179688 C 59.457031 58.238281 59.402344 58.296875 59.351562 58.355469 C 59.300781 58.414062 59.25 58.476562 59.199219 58.550781 C 59.171875 58.589844 59.144531 58.625 59.125 58.652344 C 59.101562 58.683594 59.082031 58.699219 59.066406 58.710938 C 59.039062 58.695312 59.019531 58.671875 59.003906 58.644531 C 58.992188 58.613281 58.984375 58.585938 58.976562 58.554688 C 58.976562 58.53125 58.980469 58.5 58.988281 58.460938 C 58.996094 58.421875 59.003906 58.378906 59.015625 58.332031 C 59.03125 58.285156 59.042969 58.234375 59.0625 58.183594 C 59.082031 58.132812 59.101562 58.082031 59.125 58.027344 C 59.175781 57.914062 59.222656 57.820312 59.261719 57.753906 C 59.304688 57.6875 59.332031 57.652344 59.339844 57.648438 Z M 60.320312 57.851562 L 60.207031 57.851562 C 60.203125 57.84375 60.195312 57.824219 60.191406 57.800781 C 60.183594 57.773438 60.183594 57.753906 60.183594 57.734375 C 60.21875 57.734375 60.25 57.738281 60.28125 57.738281 C 60.3125 57.742188 60.34375 57.742188 60.371094 57.746094 C 60.390625 57.707031 60.410156 57.667969 60.433594 57.628906 C 60.457031 57.589844 60.480469 57.550781 60.5 57.519531 C 60.523438 57.488281 60.542969 57.460938 60.5625 57.4375 C 60.582031 57.414062 60.597656 57.402344 60.605469 57.394531 C 60.621094 57.394531 60.636719 57.394531 60.660156 57.402344 C 60.679688 57.40625 60.699219 57.410156 60.71875 57.417969 C 60.742188 57.425781 60.761719 57.433594 60.777344 57.441406 C 60.796875 57.449219 60.808594 57.457031 60.8125 57.464844 C 60.773438 57.515625 60.738281 57.5625 60.710938 57.605469 C 60.683594 57.648438 60.652344 57.699219 60.621094 57.753906 C 60.644531 57.753906 60.671875 57.753906 60.699219 57.75 C 60.726562 57.75 60.753906 57.746094 60.78125 57.746094 C 60.789062 57.753906 60.792969 57.761719 60.796875 57.769531 C 60.800781 57.78125 60.804688 57.789062 60.804688 57.800781 C 60.738281 57.824219 60.660156 57.839844 60.566406 57.839844 C 60.535156 57.902344 60.503906 57.96875 60.480469 58.03125 C 60.453125 58.09375 60.433594 58.152344 60.414062 58.210938 C 60.394531 58.269531 60.382812 58.324219 60.371094 58.375 C 60.363281 58.429688 60.355469 58.472656 60.355469 58.515625 C 60.355469 58.574219 60.378906 58.605469 60.421875 58.613281 C 60.460938 58.605469 60.5 58.597656 60.535156 58.582031 C 60.570312 58.566406 60.601562 58.550781 60.632812 58.527344 C 60.640625 58.539062 60.644531 58.550781 60.644531 58.558594 C 60.636719 58.570312 60.625 58.582031 60.605469 58.597656 C 60.585938 58.613281 60.5625 58.628906 60.542969 58.644531 C 60.519531 58.660156 60.496094 58.671875 60.476562 58.683594 C 60.457031 58.695312 60.4375 58.699219 60.429688 58.703125 C 60.394531 58.699219 60.363281 58.691406 60.328125 58.679688 C 60.296875 58.667969 60.265625 58.648438 60.238281 58.628906 C 60.210938 58.609375 60.191406 58.589844 60.171875 58.5625 C 60.15625 58.539062 60.148438 58.515625 60.148438 58.492188 C 60.148438 58.460938 60.152344 58.417969 60.160156 58.371094 C 60.167969 58.324219 60.179688 58.269531 60.195312 58.214844 C 60.210938 58.15625 60.230469 58.097656 60.253906 58.035156 C 60.273438 57.972656 60.296875 57.910156 60.320312 57.851562 Z M 60.320312 57.851562 "/>
</g>
<g clip-path="url(#clip5)" clip-rule="nonzero">
<path style=" stroke:none;fill-rule:nonzero;fill:rgb(0%,0%,0%);fill-opacity:1;" d="M 45.660156 41.082031 C 45.660156 41.082031 44.980469 40.664062 44.949219 41.425781 C 44.917969 42.1875 46.175781 43.773438 47.414062 45.089844 C 48.726562 46.488281 48.734375 46.480469 49.917969 47.515625 L 50.527344 47.53125 C 50.527344 47.53125 52.730469 49.957031 53.523438 50.75 C 54.101562 51.328125 54.980469 50.40625 54.523438 49.949219 Z M 45.660156 41.082031 "/>
</g>
<g clip-path="url(#clip6)" clip-rule="nonzero">
<path style=" stroke:none;fill-rule:nonzero;fill:rgb(0%,0%,0%);fill-opacity:1;" d="M 45.085938 49.726562 C 44.476562 50.335938 45.375 51.414062 46.105469 50.683594 C 46.839844 49.953125 48.835938 47.953125 48.835938 47.953125 L 47.839844 46.972656 C 47.839844 46.972656 45.695312 49.117188 45.085938 49.726562 Z M 45.085938 49.726562 "/>
</g>
<g clip-path="url(#clip7)" clip-rule="nonzero">
<path style=" stroke:none;fill-rule:nonzero;fill:rgb(0%,0%,0%);fill-opacity:1;" d="M 55.074219 42.613281 C 54.984375 42.402344 54.777344 42.257812 54.550781 42.257812 C 54.40625 42.257812 54.269531 42.320312 54.152344 42.433594 L 52.414062 44.171875 C 52.183594 44.40625 51.882812 44.417969 51.6875 44.222656 L 51.566406 44.105469 C 51.296875 43.832031 51.496094 43.488281 51.636719 43.34375 L 53.339844 41.644531 C 53.519531 41.460938 53.578125 41.226562 53.488281 41.011719 C 53.40625 40.808594 53.203125 40.671875 52.984375 40.671875 C 52.875 40.671875 52.707031 40.707031 52.546875 40.867188 L 50.722656 42.695312 C 50.226562 43.191406 50.027344 44.046875 50.636719 44.65625 C 50.757812 44.777344 50.765625 44.785156 50.773438 44.796875 C 50.792969 44.820312 50.804688 44.839844 51.121094 45.15625 C 51.378906 45.414062 51.691406 45.550781 52.023438 45.550781 C 52.394531 45.550781 52.777344 45.375 53.097656 45.054688 L 54.941406 43.210938 C 55.109375 43.042969 55.160156 42.820312 55.074219 42.613281 Z M 55.074219 42.613281 "/>
</g>
</g>
</svg>
